<svg width="29" height="30" fill="none" xmlns="http://www.w3.org/2000/svg"><path d="M4.729 0L0 4.778h23.939L28.667 0H4.73z" fill="#13BEBB"/><path d="M13.742 30c5.882 0 7.36-2.365 7.36-5.605 0-3.985-3.596-4.73-6.587-5.216-2.286-.388-3.328-.583-3.328-1.976 0-1.037.908-1.425 2.387-1.425 1.815 0 2.319.518 2.487 2.04l4.773-.712c-.404-3.272-2.252-4.924-7.126-4.924-5.344 0-7.226 2.138-7.226 5.54-.033 4.406 4.134 4.859 7.226 5.377 1.916.357 2.656.68 2.656 1.944 0 1.037-.639 1.49-2.555 1.49-2.117 0-2.756-.356-3.025-2.073l-4.638.68C6.583 28.607 8.633 30 13.742 30z" fill="#21125E"/></svg>
