<svg data-name="Layer 1" xmlns="http://www.w3.org/2000/svg" viewBox="0 0 500 500"><path d="M110.82 47.9c0 5.67-.36 12.63-7.14 12.63-5.68 0-8.06-5.31-13.92-12.27C84.45 42 77.31 34.53 66.13 34.53c-8.61 0-17.4 4.94-17.4 15.2 0 28 68.14 15.57 68.14 62.45 0 24.91-23.08 42.68-54.4 42.68-18.5 0-37.18-5.49-43-14.65-3.12-5-3.66-11-3.66-16.3 0-2.38-.37-4.77-.37-7 0-5.68 3.48-8.43 7-8.43 6.23 0 7.51 6.78 17 16.85 6.23 6.6 14.47 14.1 27.48 14.1 5.31 0 11.35-1.28 15.38-4.76a17.46 17.46 0 006.23-13.18c0-28.76-67.95-18.5-67.95-61.18C20.53 38 41 19.87 70.9 19.87c13.92 0 28.38 3.67 35.34 10.26 3.48 3.48 4.58 11.54 4.58 17.77zm134.71 100.18c0 3.12-3.11 4.76-7.14 4.76h-39.56c-4 0-7.14-1.64-7.14-4.76 0-2.74 2.19-4 4.57-5.49a14.89 14.89 0 006.74-7.69c.92-2.57 1.83-6.6 1.83-19.42V93c0-9.7-4.58-17-14.83-17a17 17 0 00-12.09 5c-6.23 6-8.24 15.93-8.24 34.61 0 12.82.91 16.85 1.83 19.42a13.53 13.53 0 006.78 7.69c2.38 1.46 4.57 2.75 4.57 5.49 0 3.12-3.11 4.76-7.14 4.76h-39.15c-4 0-7-1.64-7-4.76 0-2.74 2-4 4.39-5.49a13.6 13.6 0 006.78-7.69c.91-2.57 1.83-6.6 1.83-19.42V52.84c0-5.31-.18-9.16-1.28-12.09s-3.12-4.58-6.6-6.22c-2-.92-5.86-1.65-5.86-4.77 0-2.56 2-4.21 6.23-5.12a218.53 218.53 0 0025.09-7.51 15.12 15.12 0 014.76-1.1c2.39 0 4.77 1.28 4.77 6.23v48c0 .92.36 1.28.73 1.28s.73-.36 1.1-.91a35.32 35.32 0 0129.67-15.39c9.71 0 19.78 4.22 25.64 13.37 4.21 6.23 5.5 14.47 5.5 24.36v22.53c0 12.82 1.09 16.85 1.83 19.42.91 2.93 3.29 5.67 6.77 7.69 2.61 1.44 4.62 2.73 4.62 5.47zm66.21 0c0 3.12-3.11 4.76-7.14 4.76h-39.38c-4 0-7.14-1.64-7.14-4.76 0-2.74 2-3.84 4.58-5.31a14.68 14.68 0 006.77-7.87c.92-2.57 1.83-6.41 1.83-19.24v-23.8c0-5.32-.18-9.16-1.28-12.09s-3.11-4.58-6.77-6c-2-.91-5.68-1.83-5.68-5.13 0-2.56 1.83-3.84 6-4.94 8.43-2 18.87-4.95 25.46-7.33a15.4 15.4 0 014.76-1.1c2.38 0 4.76 1.29 4.76 6.23v54.21c0 12.64.92 16.67 1.84 19.24a14.68 14.68 0 006.77 7.87c2.42 1.42 4.62 2.33 4.62 5.26zM285 48.81c-5.68 0-17.58-12.09-17.58-17.58s11.9-17.4 17.58-17.4c5.5 0 17.4 11.91 17.4 17.4 0 5.68-11.9 17.58-17.4 17.58zm125.15-14.47c0 7-.92 13-7.7 13-7.5 0-10.25-16.85-22.16-16.85-12.63 0-13.37 18.68-13.37 28.75 0 1.1.74 1.47 1.83 1.47 2.39 0 7.7 0 11.36-.37 3.85-.36 7.14-.91 10.62-.91 2.75 0 6 .36 6 3.66a22.92 22.92 0 01-.74 4.76c-1.09 5.13-2.56 7.33-7.5 7.33-3.48 0-6.23-.37-10.26-.55-4.58-.19-7.33-.19-9-.19-1.46 0-2.19.74-2.19 2.39v39c0 12.64.91 16.67 1.83 19.23a13.82 13.82 0 006.59 7.69c2.56 1.47 4.58 2.57 4.58 5.31 0 3.12-3.11 4.76-7 4.76h-39.63c-4 0-7-1.64-7-4.76 0-2.74 2-4 4.39-5.31a13.57 13.57 0 006.78-7.69c.73-2.56 1.83-6.59 1.83-19.23s-.18-32.79-.18-40.11c0-.92-.37-1.29-1.47-1.29h-11.13c-1.83 0-2.93-.54-2.93-2.56v-8.4c0-1.65.91-2.75 2.93-2.75H338c1.1 0 1.65-.37 1.84-1.47C342.38 34 360.51 16 388 16c7.32 0 13.18 1.65 16.48 4 4.57 3.35 5.67 9.4 5.67 14.34zm77.2 100.56a11.56 11.56 0 01-2.38 6.22c-5.68 8.43-16.49 13.74-27.66 13.74-13.55 0-22.34-6.41-26.56-14.29-3.11-5.86-4.21-13.18-4.21-23.07 0-12.09 1.47-24.36 1.83-41 0-1.47-.55-2-2-2h-11.19a2.64 2.64 0 01-2.74-2.93v-7.92c0-1.65.91-2.75 3.11-3.12 9.34-1.46 14.47-4.94 17.4-9.15 3.11-4.4 3.66-9.53 4.4-13.19.36-2 1.28-2.93 3.11-2.93h11.91a2.6 2.6 0 012.74 2.74v17.22c0 5 .37 5.5 4.76 5.5a66.17 66.17 0 008.43-.55 95.32 95.32 0 0110.44-.92c2.2 0 6.41.19 6.41 3.67a36 36 0 01-1.1 5.49c-1.1 4.76-2.56 6.78-8.42 6.78-2.75 0-6.05-.37-9.34-.55-2.94-.19-6.78-.19-9.53-.19a1.83 1.83 0 00-2 2c-.19 4.4-.19 9.71-.19 15.2 0 13.56.55 28.21 2.75 35 2.56 7.88 8.24 10.08 12.27 10.08 7.33 0 10.26-5.68 14.11-5.68a3.72 3.72 0 013.65 3.85zM118.88 267.71a31.15 31.15 0 01-1.46 7.15c-2.93 9.34-1.65 25.09-13.74 25.09-5 0-13-1.47-30.77-1.47H25.29c-3.3 0-5.68-.91-5.68-3.48 0-4 6.41-2.93 9.53-10.25 1.46-3.3 2-9.34 2-17.77v-73.63c0-11.17-.18-14.47-5.13-17.4-2.38-1.46-5.49-2-5.49-4.94 0-1.83 1.83-3.3 4.94-3.3h47.63c17.22 0 26.93-1.28 32.24-1.28 3.48 0 7.14.73 7.32 5.13.37 5.49.92 19.78.92 25.09 0 3.3-1.46 5.31-5.31 5.31-2 0-3.66-1.1-5.31-5.31-2.2-5.31-3.67-11-10.08-15.2-6.22-4-17.4-4.4-32.23-4.4H53.5c-3.12 0-4 1.28-4 3.85v39.92c0 3.3.91 4 4.21 4 4.39 0 10.62 0 17.95-.36 6.74-.34 14.44-1.46 19.2-1.46 3.66 0 6.59.37 6.59 3.67a26.7 26.7 0 01-.55 3.84c-.55 4.76-2.56 5.68-9 5.68-4.58 0-10.62-.55-17.4-.73-5.68-.19-13.74-.19-18.68-.19a2.13 2.13 0 00-2.38 2.38v31.87c0 10.63.18 14.84 2.93 17 2.38 1.83 7.14 2.38 13.37 2.38 12.45 0 21.43-1.47 27.29-4.95 11.9-7 13.37-21.24 20.69-21.43a5 5 0 015.16 5.19zm105.32-61.54c0 2-1.47 2.93-3.49 4.22-8.05 4.76-12.45 14.65-16.11 23.07l-28 64.84a2.69 2.69 0 01-2.74 1.46h-9.56a2.56 2.56 0 01-2.74-2L136.65 230c-2.75-7.69-5.13-13.55-8.61-16.85-3.48-3.11-8.06-3.66-8.06-6.77 0-2.39 1.65-3.48 5.86-3.48h30c3.29 0 4.94 1.28 4.94 3.48 0 4.39-8.61 3.11-8.61 11 0 2.39.74 5.87 2.75 11.36l18.5 50c.37.92.55.92.73.92s.37-.19.55-.74l13.92-34.61c4.76-11.91 7.33-19.6 7.33-24.91 0-10.07-9-8.24-9-13 0-2.57 2.2-3.48 5.32-3.48h26c3.91-.04 5.93.87 5.93 3.25zm77.1 72.53c0 5.13-13.92 21.8-38.28 21.8-28 0-44.5-22-44.5-47.07 0-26.74 19-52.57 47.43-52.57 26.38 0 37.37 21.43 37.37 34.25 0 11.17-5.5 12.82-14.47 13h-49.64c-1.28 0-2 .55-2 1.84v.91c0 19.23 11 36.45 30.4 36.45 17.95 0 25.28-12.45 29.67-12.45a3.69 3.69 0 014.02 3.84zm-63.37-40.84c0 .91.37 1.1 1.47 1.1h29.85c10.62 0 15.39-2.2 15.39-10.63s-7.33-18.49-20.33-18.49c-14.66 0-24 12.45-26.2 26a16.14 16.14 0 00-.18 2.02zm139.45-24.73c0 4.4-1.46 8.43-6.22 8.43-4.4 0-6.78-4-12.28-4-3.48 0-7.32 1.65-10.44 6.41-4.39 6.59-7.5 15.2-7.5 42.49 0 9 .36 15 2.19 18.68 3.3 6.6 9.34 5.86 9.34 9.89 0 2.57-2.19 3.48-5.12 3.48h-30.23c-2.93 0-5.12-.91-5.12-3.48 0-3.84 6.59-3.66 9.52-10.25 1.47-3.48 2-9.34 2-18.32v-32.81c0-7.88-.74-12.28-2.39-14.66-3.29-4.76-10.44-4-10.44-8.05 0-2 1.1-3.3 5-4a66.19 66.19 0 0015-4.95 11.07 11.07 0 014.39-1.1c2.75 0 4.22 1.83 4.22 5.13v14.47c0 .36 0 .73.36.73s.55-.55.74-.91c3.84-7.88 13.73-19.42 25.45-19.42 7.15-.03 11.53 4.92 11.53 12.24zm109.97-6.96c0 4-5.31 3.85-10.08 9.34-3.66 4.22-6.59 10.63-9.52 17.4-4.58 10.63-18.86 46-25.27 61.18-6.05 14.28-13.19 28.57-25.46 35.71a27.88 27.88 0 01-13.74 4c-8.06 0-14.47-4.39-14.47-13.92 0-4.58 1.83-9 6.23-9 5.31 0 6.59 7.69 15.38 7.69 8.61 0 13.92-9.71 17.59-16.85a4.16 4.16 0 00.55-1.83 5.46 5.46 0 00-.37-1.65l-26.92-68.68c-3.12-8.25-5.68-14.47-9.35-17.4-3.11-2.38-7.14-2.38-7.14-5.86 0-2.2 1.65-3.48 5.68-3.48h29.85c2.93 0 4.77 1.28 4.77 3.29 0 4.4-8.61 3.48-8.61 10.81 0 2.38.73 6 2.93 11.35L438.26 275c.37.91.37 1.1.73 1.1s.55-.19.92-1.1l13-33c4.4-11.36 6.78-17.95 6.78-22.71 0-9.89-9-8.06-9-13 0-2.39 2.19-3.48 5.49-3.48h25.46c3.69.07 5.71.98 5.71 3.36zM119.07 338c.18 3.48.36 7.14.36 10.8 0 2.93-1.1 5.5-5.13 5.5-7.51 0-4.39-14.84-17.58-21.61-5.49-2.75-10.62-2.75-19.23-2.75-2 0-2.38.91-2.38 2.38V419c0 8.61.36 14.65 2 18.13 3.3 6.78 9.53 6.41 9.53 10.26 0 2.56-2.38 3.48-5.13 3.48H50.2c-2.75 0-5-.92-5-3.48 0-4.4 6.6-3.3 9.71-10.62 1.28-3.12 1.65-9.16 1.65-17.77v-86.68c0-1.28-.37-2.38-2.38-2.38-10.81 0-15 .36-20.7 3.66-11 6.41-8.42 20.7-15.93 20.7-3.12 0-5-1.65-5-5.5 0-4.21.18-7.51.37-10.8.18-3.67 0-8.79.36-13.92.19-3.67 2.2-5.31 7.7-5.31s15.2 1.28 31.32 1.28h27.2c16.3 0 26-1.28 31.51-1.28 4.39 0 7.14.91 7.51 5.31.36 4.76.36 9.34.55 13.92zm101.34 80.59c0 9.52.55 16.48 2.75 20 3.11 4.76 9 5.49 9 8.79 0 2.56-2.38 3.48-5.13 3.48h-30.8c-2.74 0-5.12-.92-5.12-3.48 0-3.66 6.22-3.85 9.15-9.52 1.83-3.48 2.38-10.08 2.38-19.23V390c0-16.11-8.42-22.89-19.23-22.89a22.31 22.31 0 00-15.75 6.41c-7 7-8.61 16.85-8.61 45.06 0 9.34.55 16.11 2.57 19.59 3.11 5.31 9 5.86 9 9.16 0 2.56-2.2 3.48-4.94 3.48h-30.44c-2.74 0-4.94-.92-4.94-3.48 0-3.85 6.59-4 9.34-9.89 1.65-3.66 2.2-9.89 2.2-18.86v-75.1c0-5.86-.19-9.16-1.84-11.54-2.93-4.39-10.62-3.48-10.62-7.51 0-2 .92-3.29 5.13-4.21a81 81 0 0017-5.49 9 9 0 013.48-.92c2.38 0 4 1.65 4 5.13v50.18c0 .55.19.92.55.92s.55-.37.92-.92a35.62 35.62 0 0129.67-15.93c10.44 0 19.05 4.39 24 11.36 4 5.49 6.23 12.08 6.23 24.9zm51.86 18.86c3.3 6.41 9.34 6 9.34 9.89 0 2.56-2.38 3.48-5.12 3.48H245.9c-2.75 0-5-.92-5-3.48 0-3.85 6.41-4 9.34-9.89 1.84-3.66 2.2-9.71 2.2-18.68v-32.6c0-7.88 0-12.09-1.83-15-1.1-1.83-3.3-2.93-6-3.85-2.57-.91-4.4-1.83-4.4-3.66s.73-3.3 5.13-4.21a88.1 88.1 0 0017.4-5.32 8.92 8.92 0 013.48-.91c2.2 0 3.84 1.46 3.84 4.76v60.81c.01 9.14.38 15 2.21 18.66zm-11.35-93.52c-4.22 0-13-9-13-13 0-4.21 8.79-13.18 13-13.18s13 9 13 13.18c0 4.07-8.79 13-13 13zm120.32 74.66c0 9.52.55 16.48 2.75 20 3.11 4.76 9 5.49 9 8.79 0 2.56-2.39 3.48-5.13 3.48h-30.79c-2.75 0-5.13-.92-5.13-3.48 0-3.66 6.23-3.85 9.16-9.52 1.83-3.48 2.38-10.08 2.38-19.23V390c0-15.93-8.43-22.89-19.23-22.89a22.31 22.31 0 00-15.76 6.41c-6.95 7-8.6 16.85-8.6 45.06 0 9.34.55 16.11 2.56 19.59 3.11 5.31 9 5.86 9 9.16 0 2.56-2.19 3.48-4.94 3.48h-30.4c-2.75 0-4.95-.92-4.95-3.48 0-3.85 6.59-4 9.34-9.89 1.65-3.66 2.2-9.89 2.2-18.86v-35.71c0-5.86-.18-9.16-1.83-11.54-2.93-4.4-10.63-3.48-10.63-7.51 0-2 .92-3.29 5.13-4.21a81.29 81.29 0 0017-5.5 8.92 8.92 0 013.48-.91c2.38 0 4 1.65 4 5.13v10.8c0 .55.18.92.55.92s.55-.37.91-.92A35.64 35.64 0 01351 353.2c10.44 0 19.05 4.58 24 11.36 4 5.49 6.22 12.08 6.22 24.9zm94.02-48.54c-.92 0-2.75-.18-2.75-.18a32.65 32.65 0 014.4 16.85c0 19.59-14.1 33.7-35 35.16-7.7.55-15.76.19-15.76 6.05 0 3.66 3.67 5.31 12.82 6.22 7.7.74 17.59.74 26.75 2 13 2 20.51 9.34 20.51 19.78 0 20-20.33 30.22-47.07 30.22-16.12 0-28.57-3.3-35.17-9a17.75 17.75 0 01-7-13.73c0-10.62 9.53-15.75 14.29-15.75 2.75 0 4.39 1.28 4.39 3.11 0 2.2-3.11 4.58-3.11 10.26 0 11.9 15.2 16.11 28.94 16.11 17 0 29.85-6.41 29.85-15.93 0-6.59-5.31-9.34-15.93-10.26-8.43-.73-20-.73-28.39-2.38-11-2-16.3-8.24-16.3-15 0-8.24 7.69-13.37 11.54-14.65.55-.18.55-.36.55-.55s-.19-.36-.55-.55c-11-5.31-18.87-15.75-18.87-29.85 0-19.05 15.39-34.8 36.45-34.8 16.49 0 23.81 8.79 28 8.79 5.5 0 3.85-9 11.91-9 4.76 0 7.51 2.93 7.51 7.69.08 6.27-4.27 9.39-12.01 9.39zM421.78 384c0 11.54 5.31 28.75 19.78 28.75 11.36 0 17.22-10.25 17.22-22.34 0-11.54-5.86-28.21-19.79-28.21-11.17-.03-17.21 9.86-17.21 21.8z" fill="#0a3633"/></svg>