<svg xmlns="http://www.w3.org/2000/svg" viewBox="0 0 611.98 83.45"><defs><style>.cls-1,.cls-2{fill:#ffb200;}.cls-2{stroke:#fbb03b;stroke-miterlimit:10;}.cls-3{fill:#999;}</style></defs><title>Asset 8</title><g id="Layer_2" data-name="Layer 2"><g id="Layer_2-2" data-name="Layer 2"><path class="cls-1" d="M23.81,10.68C21.13,7.25,18.39,5.6,14.5,5.6c-4.56,0-6.28,2-6.28,4.68,0,3.77,3.37,4.91,8,6.56,5.6,2,11.65,4.06,11.65,11.82,0,7.2-6,11.31-13.7,11.31C8.56,40,4.17,38,0,33l1.48-1.37c4,5.08,8.34,6.33,12.74,6.33,5.88,0,11.59-2.85,11.59-9.25,0-5.82-4.8-7.88-10.28-9.82-6-2.17-9.42-3.65-9.42-8.56,0-3.77,2.63-6.74,8.39-6.74,4.11,0,7.54,1.37,10.79,5.77Zm2.68-2.51c-4-5.09-7.65-6.11-11.7-6.11-7.25,0-10.62,3.65-10.62,8.79,0,5.42,5,7.59,9.82,9.25,6.68,2.23,9.93,4,9.93,9.25,0,3.82-3.65,7.08-9.42,7.08A13.85,13.85,0,0,1,2.8,30.38l1.65-1.55c2.69,3.55,5.77,5.54,10.05,5.54,4.91,0,7.31-2.11,7.31-5,0-4.06-3.2-5.37-8.45-7.2-5.42-1.88-11.25-4-11.25-11.3C2.11,3.94,7.25,0,14.79,0,20,0,24.15,1.83,28,6.79Z"/><path class="cls-1" d="M39.06,39.23V.74h2.11V39.23Zm3.71-20.67V.74h2.11V16.56H65.72V.74h2.11V18.56ZM65.72,39.23V22.15H44.88V39.23H42.77V20.1H67.83V39.23Zm3.71,0V.74h2.11V39.23Z"/><path class="cls-1" d="M83.53,39.23V.74h2.12V39.23Zm3.66,0V.74H89.3V39.23Z"/><path class="cls-1" d="M101.29,39.23V.74h25.07V2.8h-23V39.23ZM105,20.16V4.28h21.36V6.34H107.12V18.16h17.53v2Zm2.12,3.42V39.23H105V21.58h19.65v2Z"/><path class="cls-1" d="M131.9,2.8V.74h32.54V2.8Zm13.36,36.43V6.34H131.9V4.28h15.47V39.23Zm3.71,0V4.28h15.47V6.34H151.08V39.23Z"/><path class="cls-1" d="M186.37,39.23V.74h23.86V2.8H188.48V37.17h22.9v2.06Zm3.71-20.62V4.28h20.15V6.34h-18V16.62h16.33v2Zm0,17.08V20h18.44v2H192.19V33.63h19.19v2.06Z"/><path class="cls-1" d="M231.65,39.51,216.17.74h2.4l14.56,36.72h2.23L250,.74h2.4L236.9,39.51ZM220.46.74h2.34l11.53,30.09L246,.74h2.34l-14,35.18Z"/><path class="cls-1" d="M259.51,39.23V.74h23.87V2.8H261.62V37.17h22.9v2.06Zm3.71-20.62V4.28h20.16V6.34H265.33V16.62h16.33v2Zm0,17.08V20h18.44v2H265.33V33.63h19.19v2.06Z"/><path class="cls-1" d="M322.83,39.23,311,21.81c4.34-.46,9.07-3.14,9.07-9.65,0-5.88-4.51-9.42-10-9.42H297.42V39.23h-2.11V.74H310c6.69,0,12.17,4.11,12.17,11.42,0,6-3.31,9.48-7.71,10.91l11,16.16ZM299,20.56V4.17h10.79c4.8,0,8.57,3,8.57,8.05,0,5.82-3.83,8.34-8.91,8.34Zm19.13,18.67L308,23.87h-6.86V39.23H299V21.87h10.11l11.59,17.36Zm-8.68-20.67c3.94,0,6.8-2.06,6.8-6.34,0-3.77-2.8-6-6.46-6h-8.68V18.56Z"/><path class="cls-1" d="M341.39,39.23V21.58L327.51.74h2.63l13.36,20.1V39.23ZM332.2.74h2.57l9.65,15.19L354.06.74h2.57L344.36,19.41Zm12.9,38.49V20.84L358.58.74h2.62l-14,20.84V39.23Z"/><path class="cls-1" d="M435.77,2.8V.74h32.55V2.8Zm13.36,36.43V6.34H435.77V4.28h15.48V39.23Zm3.71,0V4.28h15.48V6.34H455V39.23Z"/><path class="cls-1" d="M476,39.23V.74h2.11V39.23Zm3.71-20.67V.74h2.11V16.56h20.84V.74h2.11V18.56Zm22.95,20.67V22.15H481.85V39.23h-2.11V20.1H504.8V39.23Zm3.71,0V.74h2.12V39.23Z"/><path class="cls-1" d="M520.51,39.23V.74h2.11V39.23Zm3.65,0V.74h2.11V39.23Z"/><path class="cls-1" d="M542.2,2.8h-1.88V39.23h-2.06V.74h5l21.92,28.09V.74h2.06V34.83Zm23.7,36.43-22-28v28H541.8V4.8L567,37.17h1.71V.74h2.06V39.23Z"/><path class="cls-1" d="M609.86,21.87H595.59v-2H612V37.63A36.06,36.06,0,0,1,598.79,40c-12.28,0-19.42-7.54-19.42-19.93,0-10.22,5.66-20,17.82-20,6.68,0,11.25,2.57,14.39,6.68L610,8.05c-3.77-4.34-6.91-6-12.85-6-10.68,0-15.65,8.79-15.65,18,0,11.08,6.34,17.87,17.25,17.87a33.08,33.08,0,0,0,11.07-1.82Zm-3.59,3.42H595.59v-2h12.79V35.12a28.89,28.89,0,0,1-9.25,1.42C588.4,36.54,583.31,30,583.31,20c0-8.22,4.34-16.5,14-16.5a13.29,13.29,0,0,1,11.54,5.6l-1.66,1.48a11.55,11.55,0,0,0-9.88-5c-8.16,0-11.82,7.25-11.82,14.44,0,8.74,4.4,14.51,13.65,14.51a25.66,25.66,0,0,0,7.14-.92Z"/><path class="cls-2" d="M420.85,38.14l-.3,0H368.44V6.78h2V36.12h50.33a3.43,3.43,0,0,0,2.44-1.08c1.87-1.68,5-6.72,5-21.7h2c0,15.16-3.16,21-5.81,23.3A5.55,5.55,0,0,1,420.85,38.14Z"/><path class="cls-3" d="M10.4,83V63.91H2.56v-2H20.43v2h-7.8V83Z"/><path class="cls-3" d="M39.8,83v-10H27.36V83H25.13V61.91h2.23v9.15H39.8V61.91H42V83Z"/><path class="cls-3" d="M49.55,83V61.91H62.12v2H51.78v7.22h9.4v1.94h-9.4v8h11v2Z"/><path class="cls-3" d="M84.81,83H77V61.91h8c2.92,0,6,1.66,6,5.48a4.83,4.83,0,0,1-3.26,4.52,5.06,5.06,0,0,1,4.42,5.2C92.12,81.28,88.73,83,84.81,83Zm-.15-19.22H79.23v7.31h5.4c2.44,0,4.1-1.26,4.1-3.61S87.16,63.82,84.66,63.82ZM84.41,73H79.23v8.15h5.33c3.58,0,5.33-1.29,5.33-4.11S87.7,73,84.41,73Z"/><path class="cls-3" d="M98.38,75.92v-14h2.23V76c0,3.73,2.88,5.55,6.21,5.55,3.6,0,6.3-1.88,6.3-5.52V61.91h2.16v14c0,4.77-3.63,7.53-8.46,7.53C102.15,83.45,98.38,80.66,98.38,75.92Z"/><path class="cls-3" d="M122.8,83V61.91H125V81h11.13v2Z"/><path class="cls-3" d="M141.8,83V61.91H144V81h11.13v2Z"/><path class="cls-3" d="M160.79,83V61.91H163V83Z"/><path class="cls-3" d="M175.55,83V63.91h-7.83v-2h17.87v2h-7.81V83Z"/><path class="cls-3" d="M196.24,83V63.91H188.4v-2h17.87v2h-7.8V83Z"/><path class="cls-3" d="M226.3,83.45c-6.52,0-9.53-5.36-9.53-11s3-11,9.53-11A9.41,9.41,0,0,1,233.92,65l-1.63,1.44a7.16,7.16,0,0,0-5.93-3c-5,0-7.3,4.55-7.3,9s2.26,9,7.3,9a7.16,7.16,0,0,0,5.93-3L233.92,80A9.41,9.41,0,0,1,226.3,83.45Z"/><path class="cls-3" d="M253.86,83l-2.58-6.49H242L239.5,83h-2.45l8.72-21.44h1.91L256.33,83Zm-11.07-8.4h7.74l-3.89-9.82Z"/><path class="cls-3" d="M273.85,83l-6.05-8.87h-4.54V83H261V61.91h7.59c3.6,0,6.55,2.19,6.55,6a5.66,5.66,0,0,1-4.95,5.92L276.64,83Zm-5.33-19.22h-5.26v8.43h5c2.67,0,4.64-1.34,4.64-4.29A4.09,4.09,0,0,0,268.52,63.82Z"/><path class="cls-3" d="M290.5,83.45c-6.87,0-10.41-4.14-10.41-11,0-5.64,3-11,9.53-11A9.41,9.41,0,0,1,297.24,65l-1.63,1.44a7.17,7.17,0,0,0-5.93-3c-5.05,0-7.3,4.55-7.3,9,0,5.43,2.41,9,8.3,9a12.74,12.74,0,0,0,4.49-.69V74.92H288.9V73h8.4v9.27A18.47,18.47,0,0,1,290.5,83.45Z"/><path class="cls-3" d="M311.87,83.45c-6.64,0-10-5.27-10-11s3.39-10.94,10-10.94,10,5.2,10,10.94S318.52,83.45,311.87,83.45Zm0-20c-5.11,0-7.74,4.3-7.74,9s2.63,9,7.74,9,7.75-4.29,7.75-9S317,63.44,311.87,63.44Z"/><path class="cls-3" d="M343,83h-7.81V61.91h8c2.91,0,6,1.66,6,5.48a4.81,4.81,0,0,1-3.26,4.52,5.05,5.05,0,0,1,4.42,5.2C350.33,81.28,347,83,343,83Zm-.16-19.22h-5.42v7.31h5.39c2.45,0,4.11-1.26,4.11-3.61S345.38,63.82,342.87,63.82ZM342.62,73h-5.17v8.15h5.33c3.57,0,5.33-1.29,5.33-4.11S345.91,73,342.62,73Z"/><path class="cls-3" d="M356.6,83V61.91h2.23V83Z"/><path class="cls-3" d="M366.35,83V61.91h2.22V83Zm13.13,0L369.39,72.22l10.25-10.31h2.92L372.27,72.19,382.59,83Z"/><path class="cls-3" d="M387.79,83V61.91h12.57v2H390v7.22h9.41v1.94H390v8h11v2Z"/><path class="cls-3" d="M421.83,83.45a9.38,9.38,0,0,1-7.62-3.39l1.66-1.54a7.21,7.21,0,0,0,6,3c3.26,0,5.05-1.44,5.05-3.57,0-6.18-11.73-3.39-11.73-10.75,0-2.92,2-5.68,6.81-5.68a8.48,8.48,0,0,1,7.05,3.23L427.5,66.2a6.45,6.45,0,0,0-5.42-2.76c-3.14,0-4.55,1.42-4.55,3.39,0,5.58,11.73,3.23,11.73,10.69C429.26,81.38,426.06,83.45,421.83,83.45Z"/><path class="cls-3" d="M443.27,75.14h-5.21V83h-2.22V61.91h7.46c4.17,0,7,2.51,7,6.52C450.29,72.6,447.69,75.14,443.27,75.14Zm-.06-11.32h-5.15v9.37h5.11c3.23,0,4.9-1.69,4.9-4.7A4.5,4.5,0,0,0,443.21,63.82Z"/><path class="cls-3" d="M455.93,83V61.91H468.5v2H458.16v7.22h9.4v1.94h-9.4v8h11v2Z"/><path class="cls-3" d="M483,83.45c-6.52,0-9.53-5.36-9.53-11s3-11,9.53-11A9.4,9.4,0,0,1,490.66,65L489,66.42a7.14,7.14,0,0,0-5.92-3c-5.05,0-7.31,4.55-7.31,9s2.26,9,7.31,9a7.14,7.14,0,0,0,5.92-3L490.66,80A9.4,9.4,0,0,1,483,83.45Z"/><path class="cls-3" d="M496.93,83V61.91h2.23V83Z"/><path class="cls-3" d="M520.66,83l-2.57-6.49h-9.25L506.3,83h-2.44l8.71-21.44h1.91L523.14,83Zm-11.07-8.4h7.75l-3.89-9.82Z"/><path class="cls-3" d="M527.83,83V61.91h2.23V81h11.13v2Z"/><path class="cls-3" d="M546.83,83V61.91h2.22V83Z"/><path class="cls-3" d="M563.16,83.45a9.38,9.38,0,0,1-7.62-3.39l1.66-1.54a7.22,7.22,0,0,0,6,3c3.26,0,5-1.44,5-3.57,0-6.18-11.72-3.39-11.72-10.75,0-2.92,2-5.68,6.8-5.68a8.48,8.48,0,0,1,7,3.23l-1.57,1.47a6.45,6.45,0,0,0-5.42-2.76c-3.13,0-4.55,1.42-4.55,3.39,0,5.58,11.73,3.23,11.73,10.69C570.59,81.38,567.39,83.45,563.16,83.45Z"/><path class="cls-3" d="M581.56,83V63.91h-7.84v-2h17.87v2h-7.8V83Z"/><path class="cls-3" d="M601.78,83.45a9.38,9.38,0,0,1-7.62-3.39l1.66-1.54a7.19,7.19,0,0,0,6,3c3.26,0,5-1.44,5-3.57,0-6.18-11.73-3.39-11.73-10.75,0-2.92,2-5.68,6.81-5.68a8.5,8.5,0,0,1,7,3.23l-1.57,1.47A6.47,6.47,0,0,0,602,63.44c-3.14,0-4.55,1.42-4.55,3.39,0,5.58,11.73,3.23,11.73,10.69C609.21,81.38,606,83.45,601.78,83.45Z"/></g></g></svg>