<svg xmlns="http://www.w3.org/2000/svg" viewBox="0 0 611.98 94.87"><defs><style>.cls-1{fill:#afafaf;}.cls-2{fill:#ffb200;}</style></defs><title>Asset 4</title><g id="Layer_2" data-name="Layer 2"><g id="Layer_2-2" data-name="Layer 2"><path class="cls-1" d="M64.13,94.48H56.81V74.24h7.32c6.64,0,9.7,4.63,9.7,10.09S70.56,94.48,64.13,94.48ZM64,76.1h-5V92.62h5c5.08,0,7.66-3.45,7.66-8.26C71.64,79.35,68.67,76.1,64,76.1Z"/><path class="cls-1" d="M91.88,94.48l-2.47-6.21H80.56l-2.44,6.21H75.78l8.35-20.54H86l8.29,20.54Zm-10.6-8h7.41L85,77Z"/><path class="cls-1" d="M113.37,94.75l-12.55-16.6V94.48H98.75V74h1.56l12.58,16.7V74.24H115V94.75Z"/><path class="cls-1" d="M122.17,94.48V74.24h2.13V94.48Z"/><path class="cls-1" d="M137.81,94.87a9,9,0,0,1-7.3-3.24l1.6-1.47A6.89,6.89,0,0,0,137.87,93c3.13,0,4.84-1.38,4.84-3.42,0-5.92-11.23-3.25-11.23-10.3,0-2.79,1.89-5.44,6.51-5.44a8.11,8.11,0,0,1,6.76,3.1l-1.5,1.41a6.2,6.2,0,0,0-5.2-2.65c-3,0-4.35,1.36-4.35,3.25,0,5.34,11.23,3.09,11.23,10.24C144.93,92.89,141.87,94.87,137.81,94.87Z"/><path class="cls-1" d="M165.29,94.48V84.93H153.36v9.55h-2.13V74.24h2.13V83h11.93V74.24h2.13V94.48Z"/><path class="cls-1" d="M189.3,94.87c-6.24,0-9.13-5.13-9.13-10.48s2.89-10.54,9.13-10.54a9,9,0,0,1,7.3,3.34L195,78.57a6.84,6.84,0,0,0-5.68-2.86c-4.83,0-7,4.36-7,8.65s2.16,8.65,7,8.65A6.86,6.86,0,0,0,195,90.16l1.56,1.38A9,9,0,0,1,189.3,94.87Z"/><path class="cls-1" d="M215.69,94.48l-2.46-6.21h-8.86l-2.43,6.21H199.6L208,73.94h1.83l8.29,20.54Zm-10.6-8h7.42L208.79,77Z"/><path class="cls-1" d="M234.85,94.48l-5.8-8.5H224.7v8.5h-2.13V74.24h7.26c3.46,0,6.28,2.1,6.28,5.77a5.42,5.42,0,0,1-4.74,5.67l6.15,8.8Zm-5.1-18.41H224.7v8.08h4.83c2.56,0,4.45-1.29,4.45-4.11A3.92,3.92,0,0,0,229.75,76.07Z"/><path class="cls-1" d="M250.79,94.87c-6.58,0-10-4-10-10.48,0-5.4,2.88-10.54,9.13-10.54a9,9,0,0,1,7.3,3.34l-1.56,1.38A6.85,6.85,0,0,0,250,75.71c-4.83,0-7,4.36-7,8.65,0,5.2,2.32,8.65,8,8.65a12.42,12.42,0,0,0,4.3-.66V86.71h-6V84.84h8.05v8.89A17.77,17.77,0,0,1,250.79,94.87Z"/><path class="cls-1" d="M271.27,94.87c-6.37,0-9.61-5-9.61-10.54s3.24-10.48,9.61-10.48,9.61,5,9.61,10.48S277.63,94.87,271.27,94.87Zm0-19.16c-4.9,0-7.42,4.12-7.42,8.65S266.37,93,271.27,93s7.41-4.11,7.41-8.65S276.16,75.71,271.27,75.71Z"/><path class="cls-1" d="M301.11,94.48h-7.48V74.24h7.63c2.79,0,5.74,1.59,5.74,5.26a4.61,4.61,0,0,1-3.13,4.32,4.85,4.85,0,0,1,4.24,5C308.11,92.8,304.86,94.48,301.11,94.48ZM301,76.07h-5.19v7h5.16c2.34,0,3.93-1.2,3.93-3.45S303.36,76.07,301,76.07Zm-.24,8.77h-5v7.81h5.1c3.42,0,5.11-1.23,5.11-3.93S303.87,84.84,300.72,84.84Z"/><path class="cls-1" d="M314.11,94.48V74.24h2.13V94.48Z"/><path class="cls-1" d="M323.45,94.48V74.24h2.13V94.48Zm12.58,0-9.67-10.36,9.82-9.88H339l-9.85,9.85L339,94.48Z"/><path class="cls-1" d="M344,94.48V74.24h12v1.92h-9.91v6.91h9v1.86h-9v7.63h10.51v1.92Z"/><path class="cls-1" d="M376.59,94.87a9,9,0,0,1-7.3-3.24l1.59-1.47A6.92,6.92,0,0,0,376.65,93c3.12,0,4.84-1.38,4.84-3.42,0-5.92-11.24-3.25-11.24-10.3,0-2.79,1.9-5.44,6.52-5.44a8.12,8.12,0,0,1,6.76,3.1L382,78.36a6.21,6.21,0,0,0-5.2-2.65c-3,0-4.35,1.36-4.35,3.25,0,5.34,11.23,3.09,11.23,10.24C383.71,92.89,380.64,94.87,376.59,94.87Z"/><path class="cls-1" d="M397.13,86.92h-5v7.56H390V74.24h7.15c4,0,6.69,2.41,6.69,6.25C403.85,84.48,401.36,86.92,397.13,86.92Zm-.06-10.85h-4.93v9H397c3.09,0,4.68-1.62,4.68-4.5A4.31,4.31,0,0,0,397.07,76.07Z"/><path class="cls-1" d="M409.25,94.48V74.24H421.3v1.92h-9.91v6.91h9v1.86h-9v7.63H421.9v1.92Z"/><path class="cls-1" d="M435.23,94.87c-6.25,0-9.13-5.13-9.13-10.48s2.88-10.54,9.13-10.54a9,9,0,0,1,7.29,3.34L441,78.57a6.82,6.82,0,0,0-5.67-2.86c-4.84,0-7,4.36-7,8.65s2.16,8.65,7,8.65A6.84,6.84,0,0,0,441,90.16l1.56,1.38A9,9,0,0,1,435.23,94.87Z"/><path class="cls-1" d="M448.53,94.48V74.24h2.13V94.48Z"/><path class="cls-1" d="M471.26,94.48l-2.47-6.21h-8.86l-2.43,6.21h-2.34l8.35-20.54h1.83l8.29,20.54Zm-10.6-8h7.41L464.35,77Z"/><path class="cls-1" d="M478.13,94.48V74.24h2.13V92.56h10.66v1.92Z"/><path class="cls-1" d="M496.32,94.48V74.24h2.14V94.48Z"/><path class="cls-1" d="M512,94.87a9,9,0,0,1-7.3-3.24l1.59-1.47A6.89,6.89,0,0,0,512,93c3.12,0,4.83-1.38,4.83-3.42,0-5.92-11.23-3.25-11.23-10.3,0-2.79,1.89-5.44,6.52-5.44A8.11,8.11,0,0,1,518.9,77l-1.5,1.41a6.18,6.18,0,0,0-5.19-2.65c-3,0-4.36,1.36-4.36,3.25,0,5.34,11.23,3.09,11.23,10.24C519.08,92.89,516,94.87,512,94.87Z"/><path class="cls-1" d="M529.59,94.48V76.16h-7.51V74.24H539.2v1.92h-7.48V94.48Z"/><path class="cls-1" d="M549,94.87a9,9,0,0,1-7.3-3.24l1.59-1.47A6.89,6.89,0,0,0,549,93c3.12,0,4.83-1.38,4.83-3.42,0-5.92-11.23-3.25-11.23-10.3,0-2.79,1.89-5.44,6.52-5.44a8.11,8.11,0,0,1,6.75,3.1l-1.5,1.41a6.18,6.18,0,0,0-5.19-2.65c-3,0-4.36,1.36-4.36,3.25,0,5.34,11.23,3.09,11.23,10.24C556.07,92.89,553,94.87,549,94.87Z"/><path class="cls-2" d="M23.81,10.68C21.13,7.25,18.39,5.6,14.5,5.6c-4.56,0-6.28,2-6.28,4.68,0,3.77,3.37,4.91,8,6.56,5.6,2,11.65,4.06,11.65,11.82,0,7.2-6,11.31-13.7,11.31C8.56,40,4.17,38,0,33l1.48-1.37c4,5.08,8.34,6.33,12.74,6.33,5.88,0,11.59-2.85,11.59-9.25,0-5.82-4.8-7.88-10.28-9.82-6-2.17-9.42-3.65-9.42-8.56,0-3.77,2.63-6.74,8.39-6.74,4.11,0,7.54,1.37,10.79,5.77Zm2.68-2.51c-4-5.09-7.65-6.11-11.7-6.11-7.25,0-10.62,3.65-10.62,8.79,0,5.42,5,7.59,9.82,9.25,6.68,2.23,9.93,4,9.93,9.25,0,3.82-3.65,7.08-9.42,7.08A13.85,13.85,0,0,1,2.8,30.38l1.65-1.55c2.69,3.55,5.77,5.54,10.05,5.54,4.91,0,7.31-2.11,7.31-5,0-4.06-3.2-5.37-8.45-7.2-5.42-1.88-11.25-4-11.25-11.3C2.11,3.94,7.25,0,14.79,0,20,0,24.15,1.83,28,6.79Z"/><path class="cls-2" d="M39.06,39.23V.74h2.11V39.23Zm3.71-20.67V.74h2.11V16.56H65.72V.74h2.11V18.56ZM65.72,39.23V22.15H44.88V39.23H42.77V20.1H67.83V39.23Zm3.71,0V.74h2.11V39.23Z"/><path class="cls-2" d="M83.53,39.23V.74h2.12V39.23Zm3.66,0V.74H89.3V39.23Z"/><path class="cls-2" d="M101.29,39.23V.74h25.07V2.8h-23V39.23ZM105,20.16V4.28h21.36V6.34H107.12V18.16h17.53v2Zm2.12,3.42V39.23H105V21.58h19.65v2Z"/><path class="cls-2" d="M131.9,2.8V.74h32.54V2.8Zm13.36,36.43V6.34H131.9V4.28h15.47V39.23Zm3.71,0V4.28h15.47V6.34H151.08V39.23Z"/><path class="cls-2" d="M186.37,39.23V.74h23.86V2.8H188.48V37.17h22.9v2.06Zm3.71-20.62V4.28h20.15V6.34h-18V16.62h16.33v2Zm0,17.08V20h18.44v2H192.19V33.63h19.19v2.06Z"/><path class="cls-2" d="M231.65,39.51,216.17.74h2.4l14.56,36.72h2.23L250,.74h2.4L236.9,39.51ZM220.46.74h2.34l11.53,30.09L246,.74h2.34l-14,35.18Z"/><path class="cls-2" d="M259.51,39.23V.74h23.87V2.8H261.62V37.17h22.9v2.06Zm3.71-20.62V4.28h20.16V6.34H265.33V16.62h16.33v2Zm0,17.08V20h18.44v2H265.33V33.63h19.19v2.06Z"/><path class="cls-2" d="M322.83,39.23,311,21.81c4.34-.46,9.07-3.14,9.07-9.65,0-5.88-4.51-9.42-10-9.42H297.42V39.23h-2.11V.74H310c6.69,0,12.17,4.11,12.17,11.42,0,6-3.31,9.48-7.71,10.91l11,16.16ZM299,20.56V4.17h10.79c4.8,0,8.57,3,8.57,8.05,0,5.82-3.83,8.34-8.91,8.34Zm19.13,18.67L308,23.87h-6.86V39.23H299V21.87h10.11l11.59,17.36Zm-8.68-20.67c3.94,0,6.8-2.06,6.8-6.34,0-3.77-2.8-6-6.46-6h-8.68V18.56Z"/><path class="cls-2" d="M341.39,39.23V21.58L327.51.74h2.63l13.36,20.1V39.23ZM332.2.74h2.57l9.65,15.19L354.06.74h2.57L344.36,19.41Zm12.9,38.49V20.84L358.58.74h2.62l-14,20.84V39.23Z"/><path class="cls-2" d="M435.77,2.8V.74h32.55V2.8Zm13.36,36.43V6.34H435.77V4.28h15.48V39.23Zm3.71,0V4.28h15.48V6.34H455V39.23Z"/><path class="cls-2" d="M476,39.23V.74h2.11V39.23Zm3.71-20.67V.74h2.11V16.56h20.84V.74h2.11V18.56Zm22.95,20.67V22.15H481.85V39.23h-2.11V20.1H504.8V39.23Zm3.71,0V.74h2.12V39.23Z"/><path class="cls-2" d="M520.51,39.23V.74h2.11V39.23Zm3.65,0V.74h2.11V39.23Z"/><path class="cls-2" d="M542.2,2.8h-1.88V39.23h-2.06V.74h5l21.92,28.09V.74h2.06V34.83Zm23.7,36.43-22-28v28H541.8V4.8L567,37.17h1.71V.74h2.06V39.23Z"/><path class="cls-2" d="M609.86,21.87H595.59v-2H612V37.63A36.06,36.06,0,0,1,598.79,40c-12.28,0-19.42-7.54-19.42-19.93,0-10.22,5.66-20,17.82-20,6.68,0,11.25,2.57,14.39,6.68L610,8.05c-3.77-4.34-6.91-6-12.85-6-10.68,0-15.65,8.79-15.65,18,0,11.08,6.34,17.87,17.25,17.87a33.08,33.08,0,0,0,11.07-1.82Zm-3.59,3.42H595.59v-2h12.79V35.12a28.89,28.89,0,0,1-9.25,1.42C588.4,36.54,583.31,30,583.31,20c0-8.22,4.34-16.5,14-16.5a13.29,13.29,0,0,1,11.54,5.6l-1.66,1.48a11.55,11.55,0,0,0-9.88-5c-8.16,0-11.82,7.25-11.82,14.44,0,8.74,4.4,14.51,13.65,14.51a25.66,25.66,0,0,0,7.14-.92Z"/><path class="cls-2" d="M417.85,39.14l-.3,0H365.44V7.78h2V37.12h50.33a3.43,3.43,0,0,0,2.44-1.08c1.87-1.68,5-6.72,5-21.7h2c0,15.16-3.16,21-5.81,23.3A5.55,5.55,0,0,1,417.85,39.14Z"/></g></g></svg>