<svg id="Layer_1" data-name="Layer 1" xmlns="http://www.w3.org/2000/svg" viewBox="0 0 1512.12 201.47"><defs><style>.cls-1{fill:#0a3633;}</style></defs><path class="cls-1" d="M632.34,120.33a38.48,38.48,0,0,1-1.44,8c-2.88,10.42-1.62,28-13.52,28-4.86,0-12.79-1.63-30.27-1.63H540.25c-3.24,0-5.59-1-5.59-3.88,0-4.49,6.31-3.27,9.38-11.43,1.44-3.68,2-10.41,2-19.8V37.45c0-12.45-.18-16.13-5-19.39-2.34-1.64-5.4-2.25-5.4-5.52,0-2,1.8-3.67,4.86-3.67h46.86c16.94,0,26.49-1.43,31.71-1.43,3.43,0,7,.82,7.21,5.72.36,6.12.9,22,.9,28,0,3.68-1.44,5.92-5.22,5.92-2,0-3.61-1.22-5.23-5.92-2.16-5.92-3.6-12.24-9.91-16.94-6.13-4.49-17.12-4.9-31.72-4.9h-7c-3.06,0-4,1.43-4,4.29v44.5c0,3.68.9,4.49,4.14,4.49,4.33,0,10.46,0,17.66-.41,6.67-.4,14.24-1.63,18.93-1.63,3.6,0,6.49.41,6.49,4.08a34.69,34.69,0,0,1-.54,4.29c-.55,5.31-2.53,6.33-8.84,6.33-4.5,0-10.45-.61-17.12-.82-5.58-.2-13.51-.2-18.38-.2-1.62,0-2.34,1-2.34,2.65v35.52c0,11.84.18,16.54,2.88,19,2.35,2,7,2.65,13.16,2.65,12.25,0,21.08-1.63,26.85-5.51,11.71-7.76,13.16-23.68,20.36-23.88C630,114.62,632.34,116.86,632.34,120.33Z"/><path class="cls-1" d="M736,51.74c0,2.25-1.44,3.27-3.42,4.7-7.93,5.3-12.26,16.33-15.86,25.72l-27.57,72.27a2.61,2.61,0,0,1-2.71,1.63H677c-1.44,0-2.16-.62-2.7-2.25L649.82,78.28c-2.7-8.57-5.05-15.11-8.47-18.78-3.42-3.47-7.93-4.09-7.93-7.56,0-2.65,1.62-3.87,5.77-3.87h29.55c3.25,0,4.87,1.42,4.87,3.87,0,4.9-8.47,3.47-8.47,12.25,0,2.66.72,6.54,2.7,12.66L686,132.58c.36,1,.54,1,.72,1s.36-.2.55-.81L701,94.2c4.69-13.27,7.21-21.84,7.21-27.76,0-11.23-8.83-9.19-8.83-14.5,0-2.85,2.16-3.87,5.23-3.87H730.2C734,48.07,736,49.09,736,51.74Z"/><path class="cls-1" d="M811.83,132.58c0,5.72-13.69,24.29-37.66,24.29-27.58,0-43.8-24.49-43.8-52.46,0-29.81,18.75-58.59,46.68-58.59,26,0,36.77,23.89,36.77,38.17,0,12.46-5.41,14.3-14.24,14.5H750.74a1.77,1.77,0,0,0-2,2v1c0,21.44,10.81,40.63,29.91,40.63,17.66,0,24.87-13.89,29.2-13.89C810,128.29,811.83,129.72,811.83,132.58ZM749.48,87.06c0,1,.36,1.22,1.44,1.22h29.37c10.46,0,15.14-2.45,15.14-11.84s-7.21-20.62-20-20.62c-14.42,0-23.61,13.89-25.77,29A19.89,19.89,0,0,0,749.48,87.06Z"/><path class="cls-1" d="M886.69,59.5c0,4.9-1.44,9.39-6.13,9.39-4.32,0-6.66-4.49-12.07-4.49-3.42,0-7.21,1.83-10.27,7.14-4.33,7.35-7.39,16.95-7.39,47.36,0,10,.36,16.74,2.16,20.83,3.25,7.35,9.19,6.53,9.19,11,0,2.86-2.16,3.88-5,3.88H827.4c-2.88,0-5-1-5-3.88,0-4.29,6.48-4.08,9.37-11.43,1.44-3.88,2-10.41,2-20.42V82.36c0-8.78-.72-13.68-2.34-16.33-3.25-5.31-10.28-4.49-10.28-9,0-2.25,1.08-3.68,4.87-4.49A59.35,59.35,0,0,0,840.74,47a9.9,9.9,0,0,1,4.32-1.22c2.71,0,4.15,2,4.15,5.72V67.66c0,.41,0,.82.36.82s.54-.61.72-1c3.78-8.78,13.51-21.64,25.05-21.64C882.37,45.82,886.69,51.33,886.69,59.5Z"/><path class="cls-1" d="M994.89,51.74c0,4.49-5.23,4.29-9.91,10.41-3.61,4.7-6.49,11.84-9.37,19.4-4.51,11.84-18.56,51.24-24.87,68.18-6,15.92-13,31.85-25,39.81A25.11,25.11,0,0,1,912.17,194c-7.93,0-14.23-4.9-14.23-15.52,0-5.1,1.8-10,6.12-10,5.23,0,6.49,8.57,15.14,8.57,8.47,0,13.7-10.81,17.3-18.78a5,5,0,0,0,.54-2,6.6,6.6,0,0,0-.36-1.83L910.19,77.87c-3.06-9.19-5.59-16.13-9.19-19.39-3.06-2.66-7-2.66-7-6.54,0-2.45,1.62-3.87,5.59-3.87h29.37c2.89,0,4.69,1.42,4.69,3.67,0,4.9-8.47,3.88-8.47,12,0,2.65.72,6.73,2.88,12.65l18.56,52.06c.36,1,.36,1.22.72,1.22s.55-.2.91-1.22L961,91.75c4.33-12.66,6.67-20,6.67-25.31,0-11-8.83-9-8.83-14.5,0-2.65,2.16-3.87,5.4-3.87h25C992.91,48.07,994.89,49.09,994.89,51.74Z"/><path class="cls-1" d="M102.54,49.09c0,5.68-.36,12.64-7.14,12.64-5.68,0-8.06-5.31-13.92-12.27C76.17,43.23,69,35.72,57.85,35.72c-8.61,0-17.4,5-17.4,15.21,0,28,68.14,15.56,68.14,62.45,0,24.91-23.08,42.68-54.4,42.68-18.5,0-37.18-5.5-43-14.65-3.12-4.95-3.67-11-3.67-16.31,0-2.38-.36-4.76-.36-7,0-5.67,3.48-8.42,7-8.42,6.23,0,7.51,6.78,17,16.85,6.23,6.59,14.47,14.1,27.48,14.1,5.31,0,11.35-1.28,15.38-4.76a17.48,17.48,0,0,0,6.23-13.19c0-28.75-67.95-18.49-67.95-61.17,0-22.35,20.51-40.48,50.37-40.48C76.53,21.07,91,24.73,98,31.33,101.44,34.81,102.54,42.87,102.54,49.09Z"/><path class="cls-1" d="M237.25,149.28c0,3.11-3.11,4.76-7.14,4.76H190.55c-4,0-7.15-1.65-7.15-4.76,0-2.75,2.2-4,4.58-5.49a14.91,14.91,0,0,0,6.78-7.7c.92-2.56,1.83-6.59,1.83-19.41V94.15c0-9.71-4.58-17-14.83-17a17,17,0,0,0-12.09,4.94c-6.23,6-8.24,15.94-8.24,34.62,0,12.82.91,16.85,1.83,19.41a13.56,13.56,0,0,0,6.77,7.7c2.39,1.46,4.58,2.74,4.58,5.49,0,3.11-3.11,4.76-7.14,4.76H128.28c-4,0-7-1.65-7-4.76,0-2.75,2-4,4.4-5.49a13.62,13.62,0,0,0,6.78-7.7c.91-2.56,1.83-6.59,1.83-19.41V54c0-5.31-.18-9.16-1.28-12.09s-3.12-4.58-6.6-6.23c-2-.91-5.86-1.64-5.86-4.76,0-2.56,2-4.21,6.23-5.13a214.61,214.61,0,0,0,25.09-7.51,15.42,15.42,0,0,1,4.76-1.09c2.38,0,4.77,1.28,4.77,6.22v48c0,.92.36,1.28.73,1.28s.73-.36,1.1-.91a35.29,35.29,0,0,1,29.67-15.39c9.71,0,19.78,4.21,25.64,13.37,4.21,6.23,5.49,14.47,5.49,24.36v22.53c0,12.82,1.1,16.85,1.84,19.41.91,2.93,3.29,5.68,6.77,7.7C235.24,145.25,237.25,146.53,237.25,149.28Z"/><path class="cls-1" d="M303.46,149.28c0,3.11-3.11,4.76-7.14,4.76H256.94c-4,0-7.14-1.65-7.14-4.76,0-2.75,2-3.84,4.58-5.31a14.7,14.7,0,0,0,6.77-7.88c.92-2.56,1.83-6.41,1.83-19.23V93.05c0-5.31-.18-9.16-1.28-12.09s-3.11-4.58-6.77-6c-2-.92-5.68-1.83-5.68-5.13,0-2.56,1.83-3.85,6-4.94,8.43-2,18.87-4.95,25.46-7.33a15.12,15.12,0,0,1,4.76-1.1c2.38,0,4.76,1.28,4.76,6.23v54.21c0,12.64.92,16.67,1.84,19.23a14.66,14.66,0,0,0,6.77,7.88C301.26,145.44,303.46,146.35,303.46,149.28ZM276.72,50c-5.68,0-17.58-12.09-17.58-17.58S271,15,276.72,15c5.5,0,17.4,11.9,17.4,17.4C294.12,38.11,282.22,50,276.72,50Z"/><path class="cls-1" d="M401.87,35.54c0,7-.92,13-7.7,13-7.5,0-10.25-16.85-22.16-16.85-12.63,0-13.37,18.69-13.37,28.76,0,1.1.74,1.47,1.83,1.47,2.39,0,7.7,0,11.36-.37,3.85-.37,7.14-.92,10.62-.92,2.75,0,6.05.37,6.05,3.67a23,23,0,0,1-.74,4.76c-1.09,5.13-2.56,7.32-7.51,7.32-3.48,0-6.22-.36-10.25-.54-4.58-.19-7.33-.19-9-.19-1.46,0-2.19.73-2.19,2.38v39c0,12.63.91,16.66,1.83,19.23a13.85,13.85,0,0,0,6.59,7.69c2.56,1.47,4.58,2.56,4.58,5.31,0,3.11-3.11,4.76-7,4.76H325.13c-4,0-7-1.65-7-4.76,0-2.75,2-4,4.39-5.31a13.6,13.6,0,0,0,6.78-7.69c.73-2.57,1.83-6.6,1.83-19.23S331,84.26,331,76.93c0-.91-.37-1.28-1.47-1.28H318.35c-1.83,0-2.93-.55-2.93-2.56V64.66c0-1.64.91-2.74,2.93-2.74H329.7c1.1,0,1.65-.37,1.84-1.47,2.56-25.28,20.69-43.22,48.17-43.22,7.32,0,13.18,1.64,16.48,4C400.77,24.55,401.87,30.6,401.87,35.54Z"/><path class="cls-1" d="M479.07,136.09a11.56,11.56,0,0,1-2.38,6.23C471,150.75,460.2,156.06,449,156.06c-13.55,0-22.35-6.41-26.56-14.29-3.11-5.86-4.21-13.19-4.21-23.08,0-12.09,1.47-24.36,1.83-41,0-1.47-.55-2-2-2H406.9a2.65,2.65,0,0,1-2.74-2.93V64.85c0-1.65.91-2.75,3.11-3.12,9.34-1.46,14.47-4.94,17.4-9.16,3.11-4.39,3.66-9.52,4.4-13.18.36-2,1.28-2.93,3.11-2.93h11.91a2.59,2.59,0,0,1,2.74,2.74V56.42c0,4.95.37,5.5,4.76,5.5a66.17,66.17,0,0,0,8.43-.55,95.32,95.32,0,0,1,10.44-.92c2.2,0,6.41.18,6.41,3.66a35.83,35.83,0,0,1-1.1,5.5c-1.1,4.76-2.56,6.77-8.42,6.77-2.75,0-6.05-.36-9.35-.54-2.93-.19-6.77-.19-9.52-.19a1.83,1.83,0,0,0-2,2c-.19,4.39-.19,9.7-.19,15.2,0,13.55.55,28.21,2.75,35,2.56,7.88,8.24,10.08,12.27,10.08,7.33,0,10.26-5.68,14.1-5.68A3.72,3.72,0,0,1,479.07,136.09Z"/><path class="cls-1" d="M1136.72,41.92c.18,3.48.36,7.14.36,10.81,0,2.93-1.1,5.49-5.12,5.49-7.51,0-4.4-14.83-17.59-21.61-5.49-2.75-10.62-2.75-19.23-2.75-2,0-2.38.92-2.38,2.38v86.63c0,8.61.37,14.66,2,18.14,3.3,6.77,9.53,6.41,9.53,10.25,0,2.57-2.38,3.48-5.13,3.48h-31.32c-2.75,0-4.94-.91-4.94-3.48,0-4.39,6.59-3.29,9.7-10.62,1.29-3.11,1.65-9.16,1.65-17.77V36.24c0-1.28-.36-2.38-2.38-2.38-10.81,0-15,.37-20.7,3.66-11,6.42-8.42,20.7-15.93,20.7-3.11,0-5-1.65-5-5.49,0-4.22.19-7.51.37-10.81.18-3.66,0-8.79.37-13.92.18-3.66,2.19-5.31,7.69-5.31s15.2,1.28,31.32,1.28h27.11c16.3,0,26-1.28,31.5-1.28,4.39,0,7.14.91,7.51,5.31C1136.53,32.76,1136.53,37.34,1136.72,41.92Z"/><path class="cls-1" d="M1238.06,122.51c0,9.52.55,16.48,2.75,20,3.11,4.76,9,5.5,9,8.79,0,2.57-2.38,3.48-5.13,3.48h-30.77c-2.74,0-5.12-.91-5.12-3.48,0-3.66,6.22-3.84,9.15-9.52,1.84-3.48,2.39-10.07,2.39-19.23V93.94c0-16.12-8.43-22.9-19.24-22.9a22.35,22.35,0,0,0-15.75,6.41c-7,7-8.61,16.85-8.61,45.06,0,9.34.55,16.12,2.57,19.6,3.11,5.31,9,5.86,9,9.15,0,2.57-2.2,3.48-4.94,3.48h-30.41c-2.74,0-4.94-.91-4.94-3.48,0-3.84,6.59-4,9.34-9.89,1.65-3.66,2.2-9.89,2.2-18.86V47.41c0-5.86-.18-9.15-1.83-11.53-2.93-4.4-10.63-3.48-10.63-7.51,0-2,.92-3.3,5.13-4.22a80.44,80.44,0,0,0,17-5.49,9,9,0,0,1,3.48-.92c2.39,0,4,1.65,4,5.13V73.06c0,.55.19.91.55.91s.55-.36.92-.91a35.6,35.6,0,0,1,29.67-15.94c10.44,0,19.05,4.4,24,11.36,4,5.49,6.23,12.09,6.23,24.91Z"/><path class="cls-1" d="M1289.92,141.37c3.3,6.41,9.35,6,9.35,9.89,0,2.57-2.39,3.48-5.13,3.48h-30.59c-2.75,0-5-.91-5-3.48,0-3.84,6.42-4,9.35-9.89,1.83-3.66,2.19-9.7,2.19-18.68V90.09c0-7.88,0-12.09-1.83-15-1.1-1.83-3.29-2.93-6-3.85-2.57-.91-4.4-1.83-4.4-3.66s.73-3.29,5.13-4.21A88.57,88.57,0,0,0,1280.4,58a9,9,0,0,1,3.48-.92c2.2,0,3.85,1.47,3.85,4.76v60.81C1287.73,131.85,1288.09,137.71,1289.92,141.37Zm-11.35-93.52c-4.21,0-13-9-13-13,0-4.21,8.8-13.19,13-13.19s13,9,13,13.19C1291.57,38.88,1282.78,47.85,1278.57,47.85Z"/><path class="cls-1" d="M1398.89,122.51c0,9.52.55,16.48,2.75,20,3.12,4.76,9,5.5,9,8.79,0,2.57-2.38,3.48-5.13,3.48h-30.77c-2.75,0-5.13-.91-5.13-3.48,0-3.66,6.23-3.84,9.16-9.52,1.83-3.48,2.38-10.07,2.38-19.23V93.94c0-15.94-8.43-22.9-19.23-22.9a22.32,22.32,0,0,0-15.75,6.41c-7,7-8.61,16.85-8.61,45.06,0,9.34.55,16.12,2.56,19.6,3.12,5.31,9,5.86,9,9.15,0,2.57-2.2,3.48-4.95,3.48h-30.4c-2.75,0-5-.91-5-3.48,0-3.84,6.6-4,9.34-9.89,1.65-3.66,2.2-9.89,2.2-18.86V86.79c0-5.86-.18-9.15-1.83-11.54-2.93-4.39-10.62-3.48-10.62-7.5,0-2,.91-3.3,5.13-4.22A80.63,80.63,0,0,0,1330,58a9,9,0,0,1,3.48-.92c2.38,0,4,1.65,4,5.13V73.06c0,.55.18.91.55.91s.55-.36.91-.91a35.62,35.62,0,0,1,29.68-15.94c10.43,0,19,4.58,24,11.36,4,5.49,6.22,12.09,6.22,24.91Z"/><path class="cls-1" d="M1492.91,74c-.91,0-2.75-.18-2.75-.18a32.65,32.65,0,0,1,4.4,16.85c0,19.6-14.1,33.7-35,35.17-7.69.55-15.75.18-15.75,6,0,3.66,3.66,5.31,12.82,6.23,7.69.73,17.58.73,26.74,2,13,2,20.51,9.34,20.51,19.78,0,20-20.33,30.22-47.07,30.22-16.12,0-28.57-3.29-35.17-9a17.79,17.79,0,0,1-7-13.74c0-10.62,9.53-15.75,14.29-15.75,2.75,0,4.4,1.28,4.4,3.11,0,2.2-3.12,4.58-3.12,10.26,0,11.91,15.2,16.12,28.94,16.12,17,0,29.86-6.41,29.86-15.94,0-6.59-5.32-9.34-15.94-10.25-8.42-.74-20-.74-28.39-2.38-11-2-16.3-8.25-16.3-15,0-8.25,7.69-13.37,11.54-14.66.55-.18.55-.36.55-.54s-.18-.37-.55-.55c-11-5.32-18.86-15.76-18.86-29.86,0-19,15.38-34.8,36.44-34.8,16.49,0,23.81,8.79,28,8.79,5.49,0,3.84-9,11.9-9,4.76,0,7.51,2.93,7.51,7.69C1505,70.86,1500.6,74,1492.91,74Zm-53.48,13.92c0,11.54,5.31,28.76,19.78,28.76,11.36,0,17.22-10.26,17.22-22.35,0-11.54-5.86-28.2-19.78-28.2C1445.47,66.1,1439.43,76,1439.43,87.89Z"/></svg>