<svg id="Layer_1" data-name="Layer 1" xmlns="http://www.w3.org/2000/svg" viewBox="0 0 370 247"><defs><style>.cls-1{fill:#6faf00;}.cls-2{fill:#083532;}</style></defs><path class="cls-1" d="M124.79,114.92l5.87,20.67a3.43,3.43,0,0,0,2.67,2.44,14.19,14.19,0,0,1,9.64,6.62,3.37,3.37,0,0,0,2.9,1.58h25.28a3.44,3.44,0,0,0,3.44-3.45V109.21a3.44,3.44,0,0,0-3.82-3.42l-43.05,4.76A3.45,3.45,0,0,0,124.79,114.92Z"/><path class="cls-1" d="M260.1,150.68H182.17V90h92.31A6.63,6.63,0,0,1,280.64,99Z"/><path class="cls-2" d="M88.09,121.25a24.55,24.55,0,0,1,8.54,1.51.78.78,0,0,0,.22,0,.61.61,0,0,0,.58-.41.63.63,0,0,0-.37-.8,26,26,0,0,0-9-1.58.63.63,0,1,0,0,1.25Z"/><path class="cls-2" d="M71.45,126A26,26,0,0,0,62,146.06a.63.63,0,0,0,1.25,0,24.75,24.75,0,0,1,9-19.1.63.63,0,0,0-.8-1Z"/><path class="cls-2" d="M82.2,170.16a.63.63,0,1,0-.3,1.22,26.27,26.27,0,0,0,6.19.74,26,26,0,0,0,14-4.12.62.62,0,0,0,.19-.86.63.63,0,0,0-.86-.19,24.79,24.79,0,0,1-19.27,3.21Z"/><path class="cls-2" d="M82.71,139.6a.62.62,0,0,0-.88,0,8.94,8.94,0,0,0-2.75,6.48.63.63,0,0,0,1.25,0,7.66,7.66,0,0,1,2.37-5.58A.62.62,0,0,0,82.71,139.6Z"/><path class="cls-2" d="M81.62,151.42a.62.62,0,0,0,0,.88,8.93,8.93,0,0,0,6.49,2.76.63.63,0,0,0,0-1.25,7.66,7.66,0,0,1-5.59-2.38A.62.62,0,0,0,81.62,151.42Z"/><path class="cls-2" d="M295.56,128a26.56,26.56,0,0,0-8.35,1.35l-.93-2.33a29.12,29.12,0,0,1,9.28-1.52,29.71,29.71,0,0,1,5.34.49,1.25,1.25,0,0,0,.45-2.46,32,32,0,0,0-5.79-.53,31.58,31.58,0,0,0-10.2,1.7L280,111.26l.33-.92a3.12,3.12,0,0,0-5.86-2.16l-10.8,29.41a17.2,17.2,0,0,1-16.08,11.22H182.17V90h-.83V75.37l7.16-1.19a3,3,0,0,0,.86-5.72l-5-2.52a1.67,1.67,0,0,0-1.49,3L187.07,71l-7.67,1.28A1.66,1.66,0,0,0,178,74V90h-.84v9.16l-51.47,5.7h0a7.48,7.48,0,0,1-8-5.39h0l-1.18-4.14-.4.11-5.81-20.47c2-.78,4.54-1.78,12.14-1.78a1.35,1.35,0,0,0,0-2.69H96.76a2,2,0,0,0-.92,3.73c3.45,1.81,6.87,1.64,10.17,1.64a10.52,10.52,0,0,0,1.92-.16l5.8,20.41-.4.12,3.2,11.26-4.64,6a40.38,40.38,0,0,0-64.21,32.63,1.25,1.25,0,0,0,2.5,0,37.89,37.89,0,0,1,60.18-30.66l-1.54,2a35.4,35.4,0,1,0,11.4,43.56l7.7,2.15,1.12.31v-.07a11.32,11.32,0,0,0,1.84.15,11.54,11.54,0,0,0,9.06-4.41l2.9,1.81h0a1.25,1.25,0,1,0,0,2.49h8.8a1.25,1.25,0,1,0,0-2.49h-4l-6.3-3.93a11.52,11.52,0,0,0,.71-1.88H247.61a23.46,23.46,0,0,0,17-7.36,31.73,31.73,0,0,0-.11,13.57,1.24,1.24,0,0,0,1.22,1,1.18,1.18,0,0,0,.26,0,1.25,1.25,0,0,0,1-1.48,29.86,29.86,0,0,1-.62-6,29.29,29.29,0,0,1,16.88-26.5l.93,2.32A26.74,26.74,0,1,0,295.56,128ZM177.17,148.81H142a11.54,11.54,0,0,0-11.09-8.42h-1.55l-9-31.62,56.81-6.29ZM109.7,131.49a26.16,26.16,0,0,0-4.65-5.2l3.7-4.75a32.13,32.13,0,0,1,10.91,18.85H95.08q-.26-.3-.54-.6l9.74-12.51a24.38,24.38,0,0,1,4.38,4.91.64.64,0,0,0,.52.27.58.58,0,0,0,.35-.11A.62.62,0,0,0,109.7,131.49Zm16.14,11.24a10.39,10.39,0,0,0-2.38,1.79c0-.69-.07-1.37-.14-2h2.51C125.83,142.56,125.84,142.64,125.84,142.73Zm-5.67,3.33c0,1.05-.06,2.09-.16,3.12L97.09,146a9,9,0,0,0-.74-3.55H120A30.19,30.19,0,0,1,120.17,146.06ZM95,142.48a7.67,7.67,0,0,1,.87,3.38l-3.19-.44a4.57,4.57,0,0,0-.84-2.1l.66-.84Zm-2.64,5.42,27.35,3.75a31.57,31.57,0,0,1-1.85,6.44l-27.89-7.8A4.61,4.61,0,0,0,92.32,147.9Zm25.05-37.45,3.36,11.83a41,41,0,0,0-6.86-7.32Zm-5,6.49a38,38,0,0,1,12,17.81l.54,1.91c.31,1.22.56,2.47.75,3.73H123a35.36,35.36,0,0,0-12.25-21.48Zm-24.24,61.2A32.08,32.08,0,1,1,106.78,120l-3.7,4.75a26,26,0,0,0-2.29-1.45.62.62,0,0,0-.61,1.09,21.28,21.28,0,0,1,2.13,1.35l-9.74,12.52a8.86,8.86,0,0,0-4.48-1.21.63.63,0,1,0,0,1.25,7.75,7.75,0,0,1,3.71.95l-.89,1.14H88.17c-.11,0-.22,0-.33,0H87.4v0a5.66,5.66,0,0,0-1.74,10.73l0,.08L117,160A32.13,32.13,0,0,1,88.09,178.14Zm33.65-21.07a10.81,10.81,0,0,0,2.24,2.75L121,159C121.29,158.36,121.53,157.72,121.74,157.07Zm150-23.35,6.54-17.78,4,9.94A32.1,32.1,0,0,0,271.76,133.72Zm23.8,44.42a23.42,23.42,0,0,1-10.2-44.51l1.62,4.06a19.08,19.08,0,0,0-10.49,17,.63.63,0,1,0,1.25,0,17.81,17.81,0,0,1,9.71-15.84l4.3,10.78a6.35,6.35,0,0,0-2.53,5.06.63.63,0,1,0,1.25,0,5.07,5.07,0,0,1,1.77-3.84l1.78,4.46a1.66,1.66,0,1,0,3.09-1.24l-1.78-4.46h.23a.63.63,0,1,0,0-1.25c-.24,0-.48,0-.72,0l-4.3-10.79a17.71,17.71,0,0,1,5-.73.63.63,0,1,0,0-1.25,19.13,19.13,0,0,0-5.49.81l-1.62-4.06a23.43,23.43,0,1,1,7.11,45.75Z"/><path class="cls-2" d="M301.28,154.09a.62.62,0,0,0-.62.62,5.1,5.1,0,0,1-5.1,5.09.63.63,0,0,0,0,1.25,6.35,6.35,0,0,0,6.35-6.34A.63.63,0,0,0,301.28,154.09Z"/><path class="cls-2" d="M312.71,161.55a.61.61,0,0,0-.82.32,18,18,0,0,1-2.59,4.2.62.62,0,0,0,.08.88.59.59,0,0,0,.4.14.62.62,0,0,0,.48-.22,19.14,19.14,0,0,0,2.77-4.5A.61.61,0,0,0,312.71,161.55Z"/><path class="cls-2" d="M311.38,144.05a.63.63,0,0,0-1,.7,17.71,17.71,0,0,1,3,10,.63.63,0,1,0,1.25,0A19,19,0,0,0,311.38,144.05Z"/><path class="cls-2" d="M295.56,172.53A17.74,17.74,0,0,1,284.89,169a.61.61,0,0,0-.87.12.62.62,0,0,0,.12.87,18.89,18.89,0,0,0,11.42,3.8.63.63,0,1,0,0-1.25Z"/></svg>