<svg xmlns="http://www.w3.org/2000/svg" role="img" viewBox="-5.49 -5.49 285.48 126.48"><defs><style>.cls-1{fill:#083532}</style></defs><g id="Layer_1" data-name="Layer 1"><path d="M295.56 161.05a.63.63 0 0 1-.55-.7.64.64 0 0 1 .55-.55 5.11 5.11 0 0 0 5.1-5.09.63.63 0 0 1 .7-.55.64.64 0 0 1 .55.55A6.36 6.36 0 0 1 295.56 161.05zM309.78 167.09a.62.62 0 0 1-.49-1h0a18.14 18.14 0 0 0 2.59-4.2.62.62 0 0 1 .82-.32h0a.61.61 0 0 1 .33.8v0a18.94 18.94 0 0 1-2.77 4.5A.64.64 0 0 1 309.78 167.09zM295.56 173.78a18.89 18.89 0 0 1-11.42-3.8.62.62 0 0 1-.12-.87h0a.61.61 0 0 1 .85-.13h0a17.69 17.69 0 0 0 10.67 3.54.63.63 0 0 1 .16 1.25z" class="cls-1" transform="translate(-47.68 -65.7)"/></g><g id="Layer_2" data-name="Layer 2"><path d="M231.57,87.32a1,1,0,0,1-.24-.11c-.44-.31-1.91-1.45-1.1-2.3a15.75,15.75,0,0,1,3.15-2.15l2.09-1.22s.91-.53,1.85-1.22l.08-.06A19.87,19.87,0,0,1,240.11,78a11.14,11.14,0,0,1,2-1.22,13.65,13.65,0,0,1,3.2-.81c.83,0,5.74.72,7.84,2.62a9.16,9.16,0,0,1,1.71,1.8.73.73,0,0,0,.49.35,42.15,42.15,0,0,1,5.52,1.46c.56.38.76.55.73.77,0,.43-.17.7-.5,2.26a5.13,5.13,0,0,1-1.65,2.53c-.71.56-3.46.74-5.53,1.18a5.94,5.94,0,0,0-2.41,1.59c-1.95,1.65-3.6,2.57-5.9,5a15.19,15.19,0,0,0-2.42,5l-13.41-1.71c-.42,0,3.75-2.84,3.75-3.26l-4.36-2.39c0-.25,2.17-1.94,2.88-2.86a5.45,5.45,0,0,0,1.06-2.56A8.92,8.92,0,0,0,231.57,87.32Z" class="cls-1" transform="translate(-47.68 -65.7)"/><path fill="#fff" d="M250.32 80.23s-.12-.31.38-.38l.56-.09h.49s.86.1.51.43S250.32 80.23 250.32 80.23zM260.22 82.92a.23.23 0 0 1 .33-.21c.32.1.26.27.51.21a.8.8 0 0 0 .38-.23.44.44 0 0 1 .13.47.67.67 0 0 1-.66.46h-.36C260.13 83.68 260.22 82.92 260.22 82.92zM233.31 86.31c-.89.39-1.55-1-.67-1.37a1.24 1.24 0 0 1 .44-.11c1.06-.09 1.43-.83 2.48-1.44.76-.44 1.44-.76 1.75-.91a.82.82 0 0 1 .38-.06 2.29 2.29 0 0 0 .52 0c.28-.06-.66.8-.38 1.23S235.27 85.47 233.31 86.31z" transform="translate(-47.68 -65.7)"/><path d="M234.14,138.61v-8.92c-1,.16-2.12.37-3.2.47a1.14,1.14,0,0,0-1.13,1.07c-.46,2.22-.91,4.44-1.36,6.64-.93-.33-1.31,2-2.6.72l-1.1-6.85c-1.1-.37-1.89-.73-3.1,0-1.42.82-3.19,1-4.78,1.61-.6.22-1.08.94-1.67,1-1.45.19-2.46,1.21-3.72,1.73s-2.62,1.42-4,2.05a3.26,3.26,0,0,1-1.47.16q-6.56-.21-13.11-.46c-.93,0-1.86-.14-2.68-.2l-.61-4.58a7.31,7.31,0,0,0-4.41,3.44c-.57,1-1.21,1.29-2.52.72a28.21,28.21,0,0,1,3.54-5.18c.77-.84,1.58-1.67,2.42-2.45a20.52,20.52,0,0,0,4.16-5.16,3.92,3.92,0,0,1,.73-1.06,74,74,0,0,1,9.46-8.09,111,111,0,0,0,8.89-6.74c4.05-3.3,8.07-6.64,12-10.11,2.29-2,4.35-4.32,6.5-6.48,3,4.18,7,6.84,12.45,6.72.61,3.56,1.24,7.12,1.83,10.69a5.88,5.88,0,0,1,.1,1.91c-.53,3.16-.68,6.41-2.62,9.21a8.5,8.5,0,0,0-1.24,3.82,22,22,0,0,1-1.29,5.18,38.72,38.72,0,0,0-2.16,6.91C237,138.78,236.76,138.88,234.14,138.61Z" class="cls-1" transform="translate(-47.68 -65.7)"/><path fill="none" stroke="#fff" stroke-miterlimit="10" stroke-width="2" d="M230,89.61S236,99.26,244.73,99.7" transform="translate(-47.68 -65.7)"/><path d="M129.49 24.27H134.49V86.24H129.49z" class="cls-1"/><path d="M179.67,153.6a1.66,1.66,0,0,1-1.66-1.66h0V74a1.66,1.66,0,0,1,1.39-1.64L187.07,71l-4.24-2.12a1.67,1.67,0,0,1,1.49-3l5,2.52a3,3,0,0,1-.86,5.72l-7.16,1.19v76.56a1.67,1.67,0,0,1-1.61,1.73Z" class="cls-1" transform="translate(-47.68 -65.7)"/><path fill="#6faf00" d="M180.3,112.63v36.82h71.56s5.21,1,10.89-5.58l4.59-15.32Z" transform="translate(-47.68 -65.7)"/><path d="M109.18 132.46a.63.63 0 0 1-.52-.27 25 25 0 0 0-8.48-7.8.62.62 0 0 1 .61-1.09 26.19 26.19 0 0 1 8.91 8.19.63.63 0 0 1-.17.86A.61.61 0 0 1 109.18 132.46zM96.85 122.79h-.22a24.4 24.4 0 0 0-8.54-1.51.63.63 0 0 1-.16-1.25.43.43 0 0 1 .16 0 26 26 0 0 1 9 1.58.63.63 0 0 1 .37.8A.61.61 0 0 1 96.85 122.79zM62.65 146.68a.62.62 0 0 1-.62-.62A26 26 0 0 1 71.45 126a.64.64 0 1 1 .8 1 24.76 24.76 0 0 0-9 19.1A.62.62 0 0 1 62.65 146.68zM88.09 172.12a26.33 26.33 0 0 1-6.19-.74.63.63 0 1 1 .21-1.24l.09 0A24.76 24.76 0 0 0 101.47 167a.63.63 0 0 1 .86.19.62.62 0 0 1-.19.86h0A26 26 0 0 1 88.09 172.12z" class="cls-1" transform="translate(-47.68 -65.7)"/><path d="M88.09,181.47A35.42,35.42,0,1,1,123.5,146v0A35.44,35.44,0,0,1,88.09,181.47Zm0-67.49a32.08,32.08,0,1,0,32.08,32.08h0A32.12,32.12,0,0,0,88.09,114Z" class="cls-1" transform="translate(-47.68 -65.7)"/><path d="M127.25,147.31a1.25,1.25,0,0,1-1.25-1.25,37.91,37.91,0,0,0-75.82,0,1.25,1.25,0,0,1-2.5,0,40.41,40.41,0,0,1,80.82,0A1.25,1.25,0,0,1,127.25,147.31Z" class="cls-1" transform="translate(-47.68 -65.7)"/><circle cx="40.41" cy="80.36" r="4.62" class="cls-1"/><path d="M79.71 146.68a.64.64 0 0 1-.63-.62 8.94 8.94 0 0 1 2.75-6.48.62.62 0 0 1 .88.12.62.62 0 0 1 0 .78 7.66 7.66 0 0 0-2.37 5.58A.62.62 0 0 1 79.71 146.68zM88.09 155.06a8.93 8.93 0 0 1-6.49-2.76.62.62 0 0 1 .12-.88.62.62 0 0 1 .78 0 7.67 7.67 0 0 0 5.59 2.38.63.63 0 0 1 .55.7.64.64 0 0 1-.55.55zM96.47 146.68a.64.64 0 0 1-.63-.62 7.77 7.77 0 0 0-7.75-7.76.63.63 0 0 1-.16-1.25.43.43 0 0 1 .16 0 9 9 0 0 1 9 9 .62.62 0 0 1-.61.63z" class="cls-1" transform="translate(-47.68 -65.7)"/><circle cx="83.21" cy="86.23" r="10.5" class="cls-1"/><path d="M88.09,147.31a1.26,1.26,0,0,1-1-2l30.13-38.73a1.26,1.26,0,0,1,2,1.54h0l-30.15,38.7A1.21,1.21,0,0,1,88.09,147.31Z" class="cls-1" transform="translate(-47.68 -65.7)"/><path d="M121.25 94.64H124.58V153.04H121.25z" class="cls-1" transform="rotate(-15.86 -136.772 262.117)"/><path d="M122.46 70.47H96.76a2 2 0 0 0-.92 3.73c3.45 1.81 6.87 1.64 10.17 1.64 5.13 0 4-2.68 16.45-2.68a1.35 1.35 0 0 0 0-2.69zM130.89 153.18h-.17l-42.8-5.88a1.25 1.25 0 1 1 .16-2.49l.18 0 42.8 5.87a1.25 1.25 0 0 1-.17 2.49z" class="cls-1" transform="translate(-47.68 -65.7)"/><path d="M247.61 155.06H130.89a3.13 3.13 0 0 1 0-6.25H247.61a17.19 17.19 0 0 0 16.08-11.22l10.8-29.41a3.12 3.12 0 0 1 5.86 2.16l-10.8 29.4A23.48 23.48 0 0 1 247.61 155.06zM151.61 163.36h-8.8a1.25 1.25 0 1 1-.22-2.49h9a1.25 1.25 0 1 1 .22 2.49z" class="cls-1" transform="translate(-47.68 -65.7)"/><path d="M147.21,163.36a1.28,1.28,0,0,1-.66-.18L130.23,153a1.25,1.25,0,0,1-.41-1.71h0a1.26,1.26,0,0,1,1.72-.4l16.32,10.19a1.24,1.24,0,0,1-.66,2.3Z" class="cls-1" transform="translate(-47.68 -65.7)"/><path d="M130.89 163.47a11.32 11.32 0 0 1-1.84-.15v.07l-1.12-.31L85.64 151.25v-.08a5.66 5.66 0 0 1 1.74-10.73h43.49a11.54 11.54 0 1 1 0 23.08zm-2.5-2.42h.08a9.45 9.45 0 1 0 4.8-18.28 9.6 9.6 0 0 0-2.38-.31H88.09a3.58 3.58 0 0 0-1 7l.91.25h0zM124.85 108.21a10.87 10.87 0 0 1-10.35-7.86 1.67 1.67 0 0 1 3.17-1.06s0 .1 0 .15a7.48 7.48 0 0 0 8 5.39 1.66 1.66 0 0 1 .4 3.3A8.88 8.88 0 0 1 124.85 108.21zM265.71 162.26a1.24 1.24 0 0 1-1.22-1 31.76 31.76 0 0 1 36.86-37.79 1.25 1.25 0 0 1-.45 2.46 29.88 29.88 0 0 0-5.34-.49 29.27 29.27 0 0 0-28.63 35.26 1.25 1.25 0 0 1-1 1.48h0z" class="cls-1" transform="translate(-47.68 -65.7)"/><path d="M295.56,181.47a26.76,26.76,0,1,1,26.76-26.76A26.76,26.76,0,0,1,295.56,181.47Zm0-50.18A23.43,23.43,0,1,0,319,154.71a23.43,23.43,0,0,0-23.44-23.42Z" class="cls-1" transform="translate(-47.68 -65.7)"/><path d="M289.85 155.34a.63.63 0 0 1-.63-.63h0a6.35 6.35 0 0 1 6.34-6.34.63.63 0 0 1 .16 1.25h-.16a5.1 5.1 0 0 0-5.09 5.09A.64.64 0 0 1 289.85 155.34zM314 155.34a.63.63 0 0 1-.63-.63h0a17.71 17.71 0 0 0-3-10 .63.63 0 0 1 1-.7 19 19 0 0 1 3.25 10.66.63.63 0 0 1-.59.67zM277.12 155.34a.63.63 0 0 1-.63-.63h0a19.1 19.1 0 0 1 19.07-19.07.63.63 0 0 1 .16 1.25.43.43 0 0 1-.16 0 17.84 17.84 0 0 0-17.82 17.82A.64.64 0 0 1 277.12 155.34zM118.22 109a1.67 1.67 0 0 1-.18-3.33l61.45-6.8a1.67 1.67 0 1 1 .62 3.28 1.07 1.07 0 0 1-.25 0L118.4 109z" class="cls-1" transform="translate(-47.68 -65.7)"/><path d="M130.89 153.18a1.24 1.24 0 0 1-1.2-.91L107.55 74.33a1.25 1.25 0 1 1 2.37-.8l0 .11 22.14 78a1.25 1.25 0 0 1-.86 1.54A1 1 0 0 1 130.89 153.18zM295.56 156.38a1.66 1.66 0 0 1-1.54-1l-18.14-45.45a1.66 1.66 0 0 1 3.09-1.24l18.14 45.45a1.67 1.67 0 0 1-1.55 2.29z" class="cls-1" transform="translate(-47.68 -65.7)"/></g></svg>