<svg xmlns="http://www.w3.org/2000/svg" role="img" viewBox="42.01 60.01 285.74 126.74"><defs><style>.cls-1{fill:#083532}.cls-2{fill:#6faf00}</style></defs><path d="M109.18 132.46a.64.64 0 0 1-.52-.27 25 25 0 0 0-8.48-7.8.62.62 0 0 1 .61-1.09 26.18 26.18 0 0 1 8.91 8.19.62.62 0 0 1-.17.86.58.58 0 0 1-.35.11zm-12.33-9.67a.78.78 0 0 1-.22 0 24.55 24.55 0 0 0-8.54-1.51.63.63 0 1 1 0-1.25 26 26 0 0 1 9 1.58.63.63 0 0 1 .37.8.61.61 0 0 1-.61.38zm-34.2 23.89a.62.62 0 0 1-.62-.62A26 26 0 0 1 71.45 126a.63.63 0 0 1 .8 1 24.75 24.75 0 0 0-9 19.1.63.63 0 0 1-.6.58zm25.44 25.44a26.27 26.27 0 0 1-6.19-.74.63.63 0 1 1 .3-1.22 24.79 24.79 0 0 0 19.27-3.16.63.63 0 0 1 .86.19.62.62 0 0 1-.19.86 26 26 0 0 1-14.05 4.07z" class="cls-1"/><path d="M88.09 181.47a35.42 35.42 0 1 1 35.41-35.41 35.45 35.45 0 0 1-35.41 35.41zm0-67.49a32.08 32.08 0 1 0 32.08 32.08A32.12 32.12 0 0 0 88.09 114z" class="cls-1"/><path d="M127.25 147.31a1.25 1.25 0 0 1-1.25-1.25 37.91 37.91 0 0 0-75.82 0 1.25 1.25 0 0 1-2.5 0 40.41 40.41 0 0 1 80.82 0 1.25 1.25 0 0 1-1.25 1.25z" class="cls-1"/><circle cx="88.09" cy="146.06" r="4.62" class="cls-1"/><path d="M79.71 146.68a.63.63 0 0 1-.63-.62 8.94 8.94 0 0 1 2.75-6.48.63.63 0 0 1 .87.9 7.66 7.66 0 0 0-2.37 5.58.62.62 0 0 1-.62.62zm8.38 8.38a8.93 8.93 0 0 1-6.49-2.76.63.63 0 0 1 .9-.87 7.67 7.67 0 0 0 5.59 2.38.63.63 0 0 1 0 1.25zm8.38-8.38a.63.63 0 0 1-.63-.62 7.76 7.76 0 0 0-7.75-7.76.63.63 0 1 1 0-1.25 9 9 0 0 1 9 9 .62.62 0 0 1-.62.63z" class="cls-1"/><circle cx="130.89" cy="151.93" r="10.5" class="cls-1"/><path d="M88.09 147.31a1.26 1.26 0 0 1-1-2l30.13-38.73a1.25 1.25 0 0 1 2 1.54l-30.15 38.7a1.23 1.23 0 0 1-.98.49z" class="cls-1"/><path d="M113.32858 96.20393l3.20323-.91005 15.96 56.17685-3.20323.91004z" class="cls-1"/><path d="M122.46 70.47h-25.7a2 2 0 0 0-.92 3.73c3.45 1.81 6.87 1.64 10.17 1.64 5.13 0 4-2.68 16.45-2.68a1.35 1.35 0 0 0 0-2.69zm57.21 83.13a1.66 1.66 0 0 1-1.66-1.67V74a1.66 1.66 0 0 1 1.39-1.64l7.67-1.36-4.24-2.12a1.67 1.67 0 0 1 1.49-3l5 2.52a3 3 0 0 1-.86 5.72l-7.16 1.19v76.56a1.67 1.67 0 0 1-1.63 1.73zm-48.78-.42h-.17l-42.8-5.88a1.25 1.25 0 1 1 .34-2.47l42.8 5.87a1.25 1.25 0 0 1-.17 2.49zm20.72 10.18h-8.8a1.25 1.25 0 1 1 0-2.49h8.8a1.25 1.25 0 1 1 0 2.49z" class="cls-1"/><path d="M147.21 163.36a1.31 1.31 0 0 1-.66-.18L130.23 153a1.24 1.24 0 0 1-.4-1.72 1.26 1.26 0 0 1 1.72-.4l16.32 10.19a1.24 1.24 0 0 1-.66 2.3z" class="cls-1"/><path d="M130.89 163.47a11.32 11.32 0 0 1-1.84-.15v.07l-1.12-.31-42.25-11.82v-.08a5.66 5.66 0 0 1 1.71-10.75h43.47a11.54 11.54 0 0 1 0 23.08zm-2.5-2.42h.08a9.45 9.45 0 1 0 2.42-18.59H88.1a3.58 3.58 0 0 0-1 7l.87.24zm-3.54-52.84a10.86 10.86 0 0 1-10.35-7.86 1.67 1.67 0 1 1 3.21-.91 7.48 7.48 0 0 0 8 5.39 1.66 1.66 0 0 1 .4 3.3 8.84 8.84 0 0 1-1.26.08zm140.86 54.05a1.24 1.24 0 0 1-1.22-1 31.77 31.77 0 0 1 36.86-37.79 1.25 1.25 0 0 1-.45 2.46 29.71 29.71 0 0 0-5.34-.49 29.29 29.29 0 0 0-29.25 29.26 29.86 29.86 0 0 0 .62 6 1.25 1.25 0 0 1-1 1.48 1.18 1.18 0 0 1-.22.08z" class="cls-1"/><path d="M295.56 181.47a26.76 26.76 0 1 1 26.76-26.76 26.78 26.78 0 0 1-26.76 26.76zm0-50.18A23.43 23.43 0 1 0 319 154.71a23.45 23.45 0 0 0-23.44-23.42z" class="cls-1"/><path d="M289.85 155.34a.63.63 0 0 1-.63-.63 6.35 6.35 0 0 1 6.34-6.34.63.63 0 1 1 0 1.25 5.1 5.1 0 0 0-5.09 5.09.63.63 0 0 1-.62.63zm5.71 5.71a.63.63 0 0 1 0-1.25 5.1 5.1 0 0 0 5.1-5.09.63.63 0 0 1 1.25 0 6.35 6.35 0 0 1-6.35 6.34zm14.22 6.04a.59.59 0 0 1-.4-.14.62.62 0 0 1-.08-.88 18 18 0 0 0 2.59-4.2.62.62 0 1 1 1.14.5 19.14 19.14 0 0 1-2.77 4.5.62.62 0 0 1-.48.22zm4.22-11.75a.63.63 0 0 1-.63-.63 17.71 17.71 0 0 0-3-10 .63.63 0 0 1 1-.7 19 19 0 0 1 3.25 10.66.63.63 0 0 1-.62.67zm-36.88 0a.63.63 0 0 1-.63-.63 19.1 19.1 0 0 1 19.07-19.07.63.63 0 1 1 0 1.25 17.84 17.84 0 0 0-17.82 17.82.63.63 0 0 1-.62.63zm18.44 18.44a18.94 18.94 0 0 1-11.42-3.78.63.63 0 0 1-.12-.88.62.62 0 0 1 .87-.13 17.68 17.68 0 0 0 10.67 3.55.63.63 0 1 1 0 1.25zM177.17 89.97h5v61.97h-5z" class="cls-1"/><path d="M118.22 109a1.67 1.67 0 0 1-.18-3.33l61.45-6.8a1.67 1.67 0 1 1 .37 3.31L118.4 109z" class="cls-1"/><path d="M130.89 153.18a1.24 1.24 0 0 1-1.2-.91l-22.14-77.94a1.25 1.25 0 1 1 2.4-.69l22.14 78a1.25 1.25 0 0 1-.86 1.54 1 1 0 0 1-.34 0zm164.67 3.2a1.66 1.66 0 0 1-1.54-1l-18.14-45.45a1.66 1.66 0 0 1 3.09-1.24l18.14 45.45a1.67 1.67 0 0 1-1.55 2.29z" class="cls-1"/><path d="M278.08 106.2L182.17 90v59h76.9z" class="cls-2"/><path d="M247.61 155.06H130.89a3.13 3.13 0 0 1 0-6.25h116.72a17.2 17.2 0 0 0 16.08-11.22l10.8-29.41a3.12 3.12 0 0 1 5.86 2.16l-10.8 29.4a23.48 23.48 0 0 1-21.94 15.32z" class="cls-1"/><path d="M270.21 123.22l-87.65-2.85v-2.58h87.65v5.43z" class="cls-1"/><path fill="#dfd5d3" d="M247.61 149.43H182.8a.63.63 0 0 1-.63-.62v-42.26a.63.63 0 1 1 1.25 0v41.63h64.19a16.56 16.56 0 0 0 15.49-10.81L273.9 108a.63.63 0 0 1 .81-.37.63.63 0 0 1 .37.8l-10.81 29.4a17.8 17.8 0 0 1-16.66 11.6z"/><path d="M278 118.69h.12l3.24-9.14a3.12 3.12 0 0 0-1.85-4c-.14-.05-96.42-16.37-96.42-16.37h-3.84a2.81 2.81 0 0 0-2.79 2.82v26.7z" class="cls-2"/><circle cx="178.94" cy="116.77" r=".73" class="cls-1"/><circle cx="203.38" cy="116.77" r=".73" class="cls-1"/><circle cx="227.82" cy="116.77" r=".73" class="cls-1"/><circle cx="252.25" cy="116.77" r=".73" class="cls-1"/><circle cx="276.69" cy="116.77" r=".73" class="cls-1"/></svg>