<svg id="Layer_1" data-name="Layer 1" xmlns="http://www.w3.org/2000/svg" viewBox="0 0 370 247"><defs><style>.cls-1{fill:#083532;}.cls-2{fill:#6faf00;}.cls-3{fill:#dfd5d3;}</style></defs><path class="cls-1" d="M109.18,132.46a.64.64,0,0,1-.52-.27,25,25,0,0,0-8.48-7.8.62.62,0,0,1,.61-1.09,26.18,26.18,0,0,1,8.91,8.19.62.62,0,0,1-.17.86A.58.58,0,0,1,109.18,132.46Z"/><path class="cls-1" d="M96.85,122.79a.78.78,0,0,1-.22,0,24.55,24.55,0,0,0-8.54-1.51.63.63,0,1,1,0-1.25,26,26,0,0,1,9,1.58.63.63,0,0,1,.37.8A.61.61,0,0,1,96.85,122.79Z"/><path class="cls-1" d="M62.65,146.68a.62.62,0,0,1-.62-.62A26,26,0,0,1,71.45,126a.63.63,0,0,1,.8,1,24.75,24.75,0,0,0-9,19.1A.63.63,0,0,1,62.65,146.68Z"/><path class="cls-1" d="M88.09,172.12a26.27,26.27,0,0,1-6.19-.74.63.63,0,1,1,.3-1.22A24.79,24.79,0,0,0,101.47,167a.63.63,0,0,1,.86.19.62.62,0,0,1-.19.86A26,26,0,0,1,88.09,172.12Z"/><path class="cls-1" d="M88.09,181.47a35.42,35.42,0,1,1,35.41-35.41A35.45,35.45,0,0,1,88.09,181.47Zm0-67.49a32.08,32.08,0,1,0,32.08,32.08A32.12,32.12,0,0,0,88.09,114Z"/><path class="cls-1" d="M127.25,147.31a1.25,1.25,0,0,1-1.25-1.25,37.91,37.91,0,0,0-75.82,0,1.25,1.25,0,0,1-2.5,0,40.41,40.41,0,0,1,80.82,0A1.25,1.25,0,0,1,127.25,147.31Z"/><circle class="cls-1" cx="88.09" cy="146.06" r="4.62"/><path class="cls-1" d="M79.71,146.68a.63.63,0,0,1-.63-.62,8.94,8.94,0,0,1,2.75-6.48.63.63,0,0,1,.87.9,7.66,7.66,0,0,0-2.37,5.58A.62.62,0,0,1,79.71,146.68Z"/><path class="cls-1" d="M88.09,155.06a8.93,8.93,0,0,1-6.49-2.76.63.63,0,0,1,.9-.87,7.67,7.67,0,0,0,5.59,2.38.63.63,0,0,1,0,1.25Z"/><path class="cls-1" d="M96.47,146.68a.63.63,0,0,1-.63-.62,7.76,7.76,0,0,0-7.75-7.76.63.63,0,1,1,0-1.25,9,9,0,0,1,9,9A.62.62,0,0,1,96.47,146.68Z"/><circle class="cls-1" cx="130.89" cy="151.93" r="10.5"/><path class="cls-1" d="M88.09,147.31a1.26,1.26,0,0,1-1-2l30.13-38.73a1.25,1.25,0,0,1,2,1.54L89.07,146.82A1.23,1.23,0,0,1,88.09,147.31Z"/><rect class="cls-1" x="121.24" y="94.64" width="3.33" height="58.4" transform="translate(-29.16 38.3) rotate(-15.86)"/><path class="cls-1" d="M122.46,70.47H96.76a2,2,0,0,0-.92,3.73c3.45,1.81,6.87,1.64,10.17,1.64,5.13,0,4-2.68,16.45-2.68a1.35,1.35,0,0,0,0-2.69Z"/><path class="cls-1" d="M179.67,153.6a1.66,1.66,0,0,1-1.66-1.67V74a1.66,1.66,0,0,1,1.39-1.64L187.07,71l-4.24-2.12a1.67,1.67,0,0,1,1.49-3l5,2.52a3,3,0,0,1-.86,5.72l-7.16,1.19v76.56A1.67,1.67,0,0,1,179.67,153.6Z"/><path class="cls-1" d="M130.89,153.18h-.17l-42.8-5.88a1.25,1.25,0,1,1,.34-2.47l42.8,5.87a1.25,1.25,0,0,1-.17,2.49Z"/><path class="cls-1" d="M151.61,163.36h-8.8a1.25,1.25,0,1,1,0-2.49h8.8a1.25,1.25,0,1,1,0,2.49Z"/><path class="cls-1" d="M147.21,163.36a1.31,1.31,0,0,1-.66-.18L130.23,153a1.24,1.24,0,0,1-.4-1.72,1.26,1.26,0,0,1,1.72-.4l16.32,10.19a1.24,1.24,0,0,1-.66,2.3Z"/><path class="cls-1" d="M130.89,163.47a11.32,11.32,0,0,1-1.84-.15v.07l-1.12-.31L85.68,151.26l0-.08a5.66,5.66,0,0,1,1.71-10.75v0h.42c.11,0,.22,0,.33,0h42.72a11.54,11.54,0,0,1,0,23.08Zm-2.5-2.42.08,0a9.45,9.45,0,1,0,2.42-18.59H89.17v0l-1.07,0a3.58,3.58,0,0,0-1,7l.87.24h0Z"/><path class="cls-1" d="M124.85,108.21a10.86,10.86,0,0,1-10.35-7.86,1.67,1.67,0,1,1,3.21-.91,7.48,7.48,0,0,0,8,5.39,1.66,1.66,0,0,1,.4,3.3A8.84,8.84,0,0,1,124.85,108.21Z"/><path class="cls-1" d="M265.71,162.26a1.24,1.24,0,0,1-1.22-1,31.77,31.77,0,0,1,36.86-37.79,1.25,1.25,0,0,1-.45,2.46,29.71,29.71,0,0,0-5.34-.49,29.29,29.29,0,0,0-29.25,29.26,29.86,29.86,0,0,0,.62,6,1.25,1.25,0,0,1-1,1.48A1.18,1.18,0,0,1,265.71,162.26Z"/><path class="cls-1" d="M295.56,181.47a26.76,26.76,0,1,1,26.76-26.76A26.78,26.78,0,0,1,295.56,181.47Zm0-50.18A23.43,23.43,0,1,0,319,154.71,23.45,23.45,0,0,0,295.56,131.29Z"/><path class="cls-1" d="M289.85,155.34a.63.63,0,0,1-.63-.63,6.35,6.35,0,0,1,6.34-6.34.63.63,0,1,1,0,1.25,5.1,5.1,0,0,0-5.09,5.09A.63.63,0,0,1,289.85,155.34Z"/><path class="cls-1" d="M295.56,161.05a.63.63,0,0,1,0-1.25,5.1,5.1,0,0,0,5.1-5.09.63.63,0,0,1,1.25,0A6.35,6.35,0,0,1,295.56,161.05Z"/><path class="cls-1" d="M309.78,167.09a.59.59,0,0,1-.4-.14.62.62,0,0,1-.08-.88,18,18,0,0,0,2.59-4.2.62.62,0,1,1,1.14.5,19.14,19.14,0,0,1-2.77,4.5A.62.62,0,0,1,309.78,167.09Z"/><path class="cls-1" d="M314,155.34a.63.63,0,0,1-.63-.63,17.71,17.71,0,0,0-3-10,.63.63,0,0,1,1-.7,19,19,0,0,1,3.25,10.66A.63.63,0,0,1,314,155.34Z"/><path class="cls-1" d="M277.12,155.34a.63.63,0,0,1-.63-.63,19.1,19.1,0,0,1,19.07-19.07.63.63,0,1,1,0,1.25,17.84,17.84,0,0,0-17.82,17.82A.63.63,0,0,1,277.12,155.34Z"/><path class="cls-1" d="M295.56,173.78A18.94,18.94,0,0,1,284.14,170a.63.63,0,0,1-.12-.88.62.62,0,0,1,.87-.13,17.68,17.68,0,0,0,10.67,3.55.63.63,0,1,1,0,1.25Z"/><rect class="cls-1" x="177.17" y="89.97" width="5" height="61.97"/><path class="cls-1" d="M118.22,109a1.67,1.67,0,0,1-.18-3.33l61.45-6.8a1.67,1.67,0,1,1,.37,3.31L118.4,109Z"/><path class="cls-1" d="M130.89,153.18a1.24,1.24,0,0,1-1.2-.91L107.55,74.33a1.25,1.25,0,1,1,2.4-.69l22.14,78a1.25,1.25,0,0,1-.86,1.54A1,1,0,0,1,130.89,153.18Z"/><path class="cls-1" d="M295.56,156.38a1.66,1.66,0,0,1-1.54-1l-18.14-45.45a1.66,1.66,0,0,1,3.09-1.24l18.14,45.45a1.67,1.67,0,0,1-1.55,2.29Z"/><path class="cls-2" d="M278.08,106.2,182.17,90v59h76.9Z"/><path class="cls-1" d="M247.61,155.06H130.89a3.13,3.13,0,0,1,0-6.25H247.61a17.2,17.2,0,0,0,16.08-11.22l10.8-29.41a3.12,3.12,0,0,1,5.86,2.16l-10.8,29.4A23.48,23.48,0,0,1,247.61,155.06Z"/><polygon class="cls-1" points="270.21 123.22 182.56 120.37 182.56 117.79 270.21 117.79 270.21 123.22"/><path class="cls-3" d="M247.61,149.43H182.8a.63.63,0,0,1-.63-.62V106.55a.63.63,0,1,1,1.25,0v41.63h64.19a16.56,16.56,0,0,0,15.49-10.81L273.9,108a.63.63,0,0,1,.81-.37.63.63,0,0,1,.37.8l-10.81,29.4A17.8,17.8,0,0,1,247.61,149.43Z"/><path class="cls-2" d="M278,118.69h.12l3.24-9.14a3.12,3.12,0,0,0-1.85-4c-.14-.05-96.42-16.37-96.42-16.37h-3.84A2.81,2.81,0,0,0,176.46,92v26.7Z"/><circle class="cls-1" cx="178.94" cy="116.77" r="0.73"/><circle class="cls-1" cx="203.38" cy="116.77" r="0.73"/><circle class="cls-1" cx="227.82" cy="116.77" r="0.73"/><circle class="cls-1" cx="252.25" cy="116.77" r="0.73"/><circle class="cls-1" cx="276.69" cy="116.77" r="0.73"/></svg>